<?xml version="1.0" encoding="UTF-8"?>
<svg version="1.1" xmlns="http://www.w3.org/2000/svg" width="681" height="675">
<path d="M0 0 C224.73 0 449.46 0 681 0 C681 222.75 681 445.5 681 675 C456.27 675 231.54 675 0 675 C0 452.25 0 229.5 0 0 Z " fill="#020102" transform="translate(0,0)"/>
<path d="M0 0 C14.29985876 -0.07025812 28.59969054 -0.12287034 42.89968681 -0.15543652 C49.54029888 -0.17106938 56.18074376 -0.19226428 62.82128906 -0.22631836 C69.23387922 -0.25899636 75.64635779 -0.27687093 82.05902481 -0.28463173 C84.50135173 -0.29016006 86.94367278 -0.30095546 89.385952 -0.31719017 C92.81586491 -0.33907619 96.24532108 -0.3419622 99.67529297 -0.34057617 C100.67727219 -0.351362 101.6792514 -0.36214783 102.71159363 -0.3732605 C110.44531239 -0.33960723 118.26830471 0.57048075 124.5625 5.4375 C126.80010594 7.78985497 127.76440192 8.8194259 128 12 C128.66 12 129.32 12 130 12 C129.814375 12.99 129.62875 13.98 129.4375 15 C128.90060825 19.2280225 129.12690269 23.32832779 129.4375 27.5625 C129.83337972 33.06794495 130.12177849 38.54189298 130.1875 44.0625 C130.20167969 45.22910156 130.21585938 46.39570313 130.23046875 47.59765625 C129.98014906 51.29305369 129.05107112 54.4595499 128 58 C128.27734938 60.82144903 128.27734938 60.82144903 129 63 C130.32 63 131.64 63 133 63 C132.95875 63.680625 132.9175 64.36125 132.875 65.0625 C132.88357416 68.14017185 132.88357416 68.14017185 134.0625 71.5 C135.02902471 75.10835893 134.8783254 76.48669841 134 80 C134.0309375 81.7015625 134.0309375 81.7015625 134.0625 83.4375 C133.99905428 87.05390579 133.30667658 89.65164127 132 93 C132.66 93 133.32 93 134 93 C133.64999003 100.24158565 132.94397591 106.34405447 130 113 C129.34 113 128.68 113 128 113 C128 113.66 128 114.32 128 115 C126.68 115 125.36 115 124 115 C123 111.125 123 111.125 123 110 C121.35 110 119.7 110 118 110 C118.825 110.45375 119.65 110.9075 120.5 111.375 C121.325 111.91125 122.15 112.4475 123 113 C123 113.66 123 114.32 123 115 C122.34 115 121.68 115 121 115 C121 116.32 121 117.64 121 119 C119.35 119.33 117.7 119.66 116 120 C116 119.01 116 118.02 116 117 C113.69 117 111.38 117 109 117 C109.33 116.34 109.66 115.68 110 115 C110.66 115.33 111.32 115.66 112 116 C112 114.02 112 112.04 112 110 C110.04235617 109.80543295 108.08384679 109.61955753 106.125 109.4375 C105.03445313 109.33308594 103.94390625 109.22867188 102.8203125 109.12109375 C100.04847977 108.77360596 100.04847977 108.77360596 98 110 C98 109.34 98 108.68 98 108 C96.35 108 94.7 108 93 108 C93 108.66 93 109.32 93 110 C92.01 110 91.02 110 90 110 C89.505 111.485 89.505 111.485 89 113 C89 111.35 89 109.7 89 108 C86.8535247 108.11344376 84.70779408 108.24106345 82.5625 108.375 C80.77005859 108.47941406 80.77005859 108.47941406 78.94140625 108.5859375 C77.97074219 108.72257812 77.00007813 108.85921875 76 109 C75.67 109.66 75.34 110.32 75 111 C75 110.34 75 109.68 75 109 C73.02 109 71.04 109 69 109 C68.505 110.485 68.505 110.485 68 112 C67.649375 111.525625 67.29875 111.05125 66.9375 110.5625 C64.15836457 108.32126175 61.4855283 108.32882342 58 108 C57.67 108.66 57.34 109.32 57 110 C57 109.34 57 108.68 57 108 C56.31679688 108.08378906 55.63359375 108.16757812 54.9296875 108.25390625 C43.91478534 109.36666491 33.0272864 108.65477761 22 108 C21.67 106.68 21.34 105.36 21 104 C22.98 103.505 22.98 103.505 25 103 C25 102.34 25 101.68 25 101 C26.875 99.9375 26.875 99.9375 29 99 C29.66 99.33 30.32 99.66 31 100 C33.45545555 100.11358527 35.88323107 100.16779587 38.33959961 100.17700195 C39.09585129 100.18357315 39.85210297 100.19014435 40.63127136 100.19691467 C43.13829644 100.21665503 45.64526168 100.22831014 48.15234375 100.23828125 C49.00730501 100.24235678 49.86226627 100.2464323 50.74313545 100.25063133 C55.26584762 100.27149243 59.78852941 100.28579554 64.3112793 100.29516602 C68.99020615 100.3062475 73.66865963 100.34066694 78.34741879 100.38033772 C81.93930467 100.4064347 85.53107641 100.41485152 89.12304878 100.41844749 C90.8482846 100.42332923 92.57351481 100.43498811 94.29865837 100.45348549 C96.70982733 100.47773722 99.11975324 100.47693848 101.53100586 100.4699707 C102.24643555 100.48278076 102.96186523 100.49559082 103.69897461 100.50878906 C106.91797124 100.47479539 108.56574763 100.41584398 110.93978882 98.1424408 C112.30886443 95.37585666 112.43307872 93.22331398 112.51171875 90.140625 C112.56489258 88.46806641 112.56489258 88.46806641 112.61914062 86.76171875 C112.64169922 85.60285156 112.66425781 84.44398438 112.6875 83.25 C112.72166016 82.07566406 112.75582031 80.90132813 112.79101562 79.69140625 C112.87345173 76.79436611 112.94261811 73.89762702 113 71 C114.98 71.495 114.98 71.495 117 72 C114.0669125 68.93359034 112.84651293 68.03018506 108.43885803 67.87301636 C106.87339376 67.86704183 105.30790243 67.86669792 103.74243164 67.87060547 C102.46175056 67.86797699 102.46175056 67.86797699 101.15519714 67.86529541 C98.32349637 67.86088224 95.4918577 67.86381328 92.66015625 67.8671875 C90.69721973 67.86651424 88.73428328 67.86554404 86.77134705 67.86428833 C82.65297656 67.86281203 78.53462774 67.86496352 74.41625977 67.86962891 C69.13218744 67.8753224 63.84816595 67.87204916 58.5640955 67.86605644 C54.50898352 67.86244581 50.45388362 67.8635918 46.39877129 67.86618423 C44.45028108 67.86685231 42.50178979 67.86602925 40.55330086 67.86370468 C37.83115858 67.86117038 35.109099 67.86502998 32.38696289 67.87060547 C31.17355728 67.86756912 31.17355728 67.86756912 29.93563843 67.86447144 C26.6950093 67.87679213 24.09676592 67.96774469 21 69 C20.93941406 69.64066406 20.87882812 70.28132813 20.81640625 70.94140625 C20.55606424 73.62893687 20.28103464 76.31455791 20 79 C19.9278125 79.721875 19.855625 80.44375 19.78125 81.1875 C19.59292452 82.8017184 19.30564883 84.40383387 19 86 C18.01 86.495 18.01 86.495 17 87 C16.505 86.01 16.505 86.01 16 85 C14.34178227 84.62690101 12.67422986 84.29299023 11 84 C10.67 83.67 10.34 83.34 10 83 C7.94603274 83.40929986 7.94603274 83.40929986 6 84 C6.02320313 84.75925781 6.04640625 85.51851563 6.0703125 86.30078125 C6.08835937 87.29464844 6.10640625 88.28851563 6.125 89.3125 C6.14820313 90.29863281 6.17140625 91.28476562 6.1953125 92.30078125 C6 95 6 95 4 98 C3.7236415 95.75308523 3.47981139 93.50215158 3.25 91.25 C3.11078125 89.99703125 2.9715625 88.7440625 2.828125 87.453125 C3 84 3 84 4.734375 81.546875 C7 80 7 80 11 80 C11 79.34 11 78.68 11 78 C10.05125 78.495 9.1025 78.99 8.125 79.5 C5 81 5 81 3 81 C3.20625 80.21625 3.4125 79.4325 3.625 78.625 C3.74875 77.75875 3.8725 76.8925 4 76 C3.34 75.34 2.68 74.68 2 74 C2.99 74 3.98 74 5 74 C4.34 73.01 3.68 72.02 3 71 C1.73124607 65.07741203 1.93642865 58.95866781 2.0625 52.9375 C2.13154104 47.00917568 1.89698135 41.37742326 1 35.5 C-0.10985793 27.97184639 -0.1148497 20.56952386 -0.0625 12.96875 C-0.05798828 11.71932617 -0.05347656 10.46990234 -0.04882812 9.18261719 C-0.03712287 6.12169419 -0.02072574 3.06087297 0 0 Z " fill="#FBFAFB" transform="translate(274,280)"/>
<path d="M0 0 C1.24330078 -0.0103125 2.48660156 -0.020625 3.76757812 -0.03125 C5.03923828 -0.0003125 6.31089844 0.030625 7.62109375 0.0625 C8.89662109 0.0315625 10.17214844 0.000625 11.48632812 -0.03125 C17.79428466 0.02112535 22.07416874 0.25405827 26.69921875 4.80078125 C27.85630526 6.19114508 28.98090988 7.60972394 30.05859375 9.0625 C31.22455078 10.44501953 31.22455078 10.44501953 32.4140625 11.85546875 C33.01863281 12.64566406 33.62320313 13.43585938 34.24609375 14.25 C37.65928362 18.69792532 41.47086888 22.52072215 45.48828125 26.421875 C50.84002608 31.65393224 55.64705971 37.01490035 60.05859375 43.0625 C63.65425667 42.50237161 65.02869893 41.33857946 67.296875 38.54296875 C69.8217771 35.52238035 72.39077069 32.59402827 75.1015625 29.73828125 C75.78283203 29.01962891 76.46410156 28.30097656 77.16601562 27.56054688 C78.56415642 26.09151443 79.96259879 24.62276895 81.36132812 23.15429688 C84.17542233 20.18490537 86.89829401 17.26731272 89.421875 14.04296875 C90.23205078 13.06263672 90.23205078 13.06263672 91.05859375 12.0625 C91.71859375 12.0625 92.37859375 12.0625 93.05859375 12.0625 C93.05859375 11.4025 93.05859375 10.7425 93.05859375 10.0625 C97.36121013 8.30675493 101.69241659 6.65364482 106.05859375 5.0625 C106.95835937 4.7325 107.858125 4.4025 108.78515625 4.0625 C115.82352108 1.90323763 122.75457399 1.78449026 130.05859375 1.75 C131.58299072 1.74166138 131.58299072 1.74166138 133.13818359 1.7331543 C141.1879229 1.81188858 141.1879229 1.81188858 145.05859375 4.0625 C140.2015018 6.03349383 136.14832557 7.24180168 130.87109375 6.9375 C127.19282746 6.84681855 126.22689 6.96152225 122.93359375 8.9375 C119.52257671 12.29978823 116.66910894 16.23264941 113.79296875 20.05078125 C113.220625 20.71464844 112.64828125 21.37851562 112.05859375 22.0625 C111.39859375 22.0625 110.73859375 22.0625 110.05859375 22.0625 C109.80078125 22.63484375 109.54296875 23.2071875 109.27734375 23.796875 C107.94493433 26.27378995 106.40803257 28.1966166 104.55859375 30.3125 C103.95015625 31.01890625 103.34171875 31.7253125 102.71484375 32.453125 C101.05859375 34.0625 101.05859375 34.0625 99.05859375 34.0625 C98.72859375 35.3825 98.39859375 36.7025 98.05859375 38.0625 C98.71859375 38.3925 99.37859375 38.7225 100.05859375 39.0625 C99.39859375 40.0525 98.73859375 41.0425 98.05859375 42.0625 C96.07859375 41.5675 96.07859375 41.5675 94.05859375 41.0625 C93.72859375 42.0525 93.39859375 43.0425 93.05859375 44.0625 C92.06859375 44.7225 91.07859375 45.3825 90.05859375 46.0625 C92.03859375 46.5575 92.03859375 46.5575 94.05859375 47.0625 C94.05859375 48.3825 94.05859375 49.7025 94.05859375 51.0625 C95.37859375 50.4025 96.69859375 49.7425 98.05859375 49.0625 C99.04859375 50.0525 100.03859375 51.0425 101.05859375 52.0625 C99.57359375 52.5575 99.57359375 52.5575 98.05859375 53.0625 C97.39859375 52.7325 96.73859375 52.4025 96.05859375 52.0625 C96.05859375 52.7225 96.05859375 53.3825 96.05859375 54.0625 C98.03859375 54.5575 98.03859375 54.5575 100.05859375 55.0625 C99.06859375 56.3825 98.07859375 57.7025 97.05859375 59.0625 C96.06859375 57.0825 96.06859375 57.0825 95.05859375 55.0625 C94.06859375 55.0625 93.07859375 55.0625 92.05859375 55.0625 C91.56359375 56.0525 91.56359375 56.0525 91.05859375 57.0625 C92.04859375 57.0625 93.03859375 57.0625 94.05859375 57.0625 C94.05859375 57.7225 94.05859375 58.3825 94.05859375 59.0625 C94.71859375 59.3925 95.37859375 59.7225 96.05859375 60.0625 C92.90414042 63.93797124 89.74706829 67.67309096 86.05859375 71.0625 C85.39859375 71.0625 84.73859375 71.0625 84.05859375 71.0625 C83.91421875 71.68125 83.76984375 72.3 83.62109375 72.9375 C83.05859375 75.0625 83.05859375 75.0625 82.05859375 77.0625 C81.39859375 77.0625 80.73859375 77.0625 80.05859375 77.0625 C79.74921875 77.68125 79.43984375 78.3 79.12109375 78.9375 C78.43359375 80.3125 77.74609375 81.6875 77.05859375 83.0625 C76.06859375 83.0625 75.07859375 83.0625 74.05859375 83.0625 C74.05859375 84.0525 74.05859375 85.0425 74.05859375 86.0625 C73.39859375 86.0625 72.73859375 86.0625 72.05859375 86.0625 C72.05859375 88.3725 72.05859375 90.6825 72.05859375 93.0625 C64.9227841 93.56034718 56.30879177 93.32231079 50.44091797 88.82177734 C46.59432906 85.23775423 43.32644065 81.16807636 40.05859375 77.0625 C39.23230469 76.06605469 38.40601563 75.06960938 37.5546875 74.04296875 C36.05229622 72.22535494 34.56199357 70.39765819 33.0859375 68.55859375 C30.73158669 65.65988437 28.27205515 62.87328073 25.76171875 60.109375 C25.1996875 59.43390625 24.63765625 58.7584375 24.05859375 58.0625 C23.63425049 57.59835693 23.20990723 57.13421387 22.77270508 56.65600586 C18.45558051 51.46110968 18.28659466 46.70864826 18.24609375 40.125 C18.22095703 39.15498047 18.19582031 38.18496094 18.16992188 37.18554688 C18.11143031 34.81078939 18.07487426 32.43785868 18.05859375 30.0625 C17.39859375 30.0625 16.73859375 30.0625 16.05859375 30.0625 C16.05859375 54.8125 16.05859375 79.5625 16.05859375 105.0625 C14.07859375 106.0525 12.09859375 107.0425 10.05859375 108.0625 C9.72859375 108.7225 9.39859375 109.3825 9.05859375 110.0625 C12.52359375 110.5575 12.52359375 110.5575 16.05859375 111.0625 C16.42730883 115.60998603 16.42730883 115.60998603 14.68359375 117.75 C14.14734375 118.183125 13.61109375 118.61625 13.05859375 119.0625 C12.06859375 120.0525 12.06859375 120.0525 11.05859375 121.0625 C11.05859375 120.0725 11.05859375 119.0825 11.05859375 118.0625 C10.39859375 117.7325 9.73859375 117.4025 9.05859375 117.0625 C10.04859375 116.0725 10.04859375 116.0725 11.05859375 115.0625 C9.57359375 114.5675 9.57359375 114.5675 8.05859375 114.0625 C8.05859375 113.4025 8.05859375 112.7425 8.05859375 112.0625 C5.56794487 111.37542445 3.67973083 111.0625 1.05859375 111.0625 C1.05859375 112.7125 1.05859375 114.3625 1.05859375 116.0625 C2.54359375 116.5575 2.54359375 116.5575 4.05859375 117.0625 C3.37796875 117.6503125 3.37796875 117.6503125 2.68359375 118.25 C0.9039923 120.01395032 0.9039923 120.01395032 0.12109375 122.5625 C-1.12289715 125.48953742 -2.14182234 126.58036734 -4.94140625 128.0625 C-8.181504 128.0625 -9.163713 126.85607231 -11.56640625 124.625 C-12.35015625 123.779375 -13.13390625 122.93375 -13.94140625 122.0625 C-14.60140625 121.4025 -15.26140625 120.7425 -15.94140625 120.0625 C-16.39314134 116.81000738 -16.06944715 115.29024214 -14.44677734 112.40405273 C-12.67015016 108.46037834 -12.50791893 105.08714467 -12.54296875 100.84765625 C-12.54009857 100.07369003 -12.53722839 99.29972382 -12.53427124 98.50230408 C-12.53223864 96.8727037 -12.53771204 95.24307847 -12.55029297 93.61352539 C-12.56633717 91.13566814 -12.55042921 88.65944717 -12.53125 86.18164062 C-12.533233 84.59114227 -12.53707786 83.00064493 -12.54296875 81.41015625 C-12.53385971 80.31139915 -12.53385971 80.31139915 -12.52456665 79.19044495 C-12.58323161 74.8425839 -13.35842093 72.09589485 -15.24752808 68.12153625 C-16.84771294 63.37309657 -16.49744379 58.15122105 -16.55078125 53.19140625 C-16.56788147 51.95510971 -16.58498169 50.71881317 -16.6026001 49.4450531 C-16.63086564 46.837063 -16.65051846 44.22896712 -16.66210938 41.62084961 C-16.69129249 37.64051622 -16.78443756 33.66479449 -16.87890625 29.68554688 C-16.89849337 27.1458608 -16.91424597 24.60614166 -16.92578125 22.06640625 C-16.96282166 20.88285049 -16.99986206 19.69929474 -17.0380249 18.47987366 C-17.00010467 13.77112661 -16.91068402 10.41420348 -14.11524963 6.51583862 C-9.7794549 2.3719212 -6.14619419 0.04965547 0 0 Z " fill="#FAF9FA" transform="translate(424.94140625,277.9375)"/>
<path d="M0 0 C0.80531158 -0.00365067 1.61062317 -0.00730133 2.44033813 -0.01106262 C5.09903122 -0.01916073 7.75711348 -0.00556552 10.41577148 0.0090332 C12.26374816 0.00955185 14.1117254 0.00903398 15.95970154 0.00752258 C19.83080288 0.00761227 23.7016958 0.01803546 27.57275391 0.03613281 C32.53847517 0.0588357 37.50389233 0.05936083 42.46965122 0.05261517 C46.28458873 0.04927652 50.0994567 0.05590305 53.91438103 0.0657444 C55.74564182 0.06959729 57.57691035 0.07074425 59.40817451 0.06915855 C61.96497513 0.06878837 64.52138326 0.08139444 67.078125 0.09765625 C68.21668694 0.09394012 68.21668694 0.09394012 69.37825012 0.09014893 C73.12124424 0.1282108 74.7785521 0.24177236 77.97436523 2.37231445 C77.81371582 3.2358252 77.65306641 4.09933594 77.48754883 4.98901367 C76.99927878 8.20806519 76.8187555 11.25297099 76.76342773 14.50512695 C76.73506836 15.64079102 76.70670898 16.77645508 76.67749023 17.9465332 C76.62523858 20.32137102 76.58101859 22.69639863 76.54467773 25.0715332 C76.51374023 26.20461914 76.48280273 27.33770508 76.45092773 28.50512695 C76.4311084 29.53524902 76.41128906 30.56537109 76.39086914 31.62670898 C75.89542095 34.8927174 75.34947708 36.07962574 72.97436523 38.37231445 C70.42732197 38.76037671 68.31079854 38.88962281 65.76489258 38.84228516 C65.034543 38.84447556 64.30419342 38.84666595 63.55171204 38.84892273 C61.13744845 38.85123453 58.72440371 38.82497984 56.31030273 38.7980957 C54.63547147 38.79317329 52.96063471 38.78987344 51.28579712 38.78813171 C47.77685975 38.78048973 44.26833 38.75992051 40.75952148 38.72900391 C36.25211652 38.68936784 31.7449766 38.67138609 27.23741722 38.66169453 C22.94917617 38.65174211 18.66100052 38.63183668 14.37280273 38.6105957 C13.54954876 38.60719995 12.72629478 38.60380421 11.87809372 38.60030556 C9.56033197 38.58878129 7.24274214 38.57027001 4.92504883 38.54931641 C3.88555336 38.54528305 3.88555336 38.54528305 2.82505798 38.54116821 C-1.91073097 38.48721825 -1.91073097 38.48721825 -3.02563477 37.37231445 C-4.16000977 37.22793945 -5.29438477 37.08356445 -6.46313477 36.93481445 C-10.02563477 36.37231445 -10.02563477 36.37231445 -12.02563477 34.37231445 C-13.43451055 28.15396134 -13.05135262 22.01268674 -12.83813477 15.68481445 C-12.81944336 14.54463867 -12.80075195 13.40446289 -12.78149414 12.22973633 C-12.74475586 11.13854492 -12.70801758 10.04735352 -12.67016602 8.9230957 C-12.629198 7.43289917 -12.629198 7.43289917 -12.58740234 5.91259766 C-12.02563477 3.37231445 -12.02563477 3.37231445 -10.49212646 1.73681641 C-7.0459705 -0.16965121 -3.83610647 -0.03873386 0 0 Z " fill="#070607" transform="translate(306.025634765625,297.627685546875)"/>
<path d="M0 0 C3.66953731 0.65174406 7.33549283 1.32046113 11 2 C11.64179199 2.11778809 12.28358398 2.23557617 12.94482422 2.35693359 C14.96470948 2.73044392 16.9824392 3.11414916 19 3.5 C20.258125 3.7371875 21.51625 3.974375 22.8125 4.21875 C26 5 26 5 29 7 C29.39199829 9.92921448 29.39199829 9.92921448 29.41650391 13.72875977 C29.42508926 14.41994904 29.43367462 15.11113831 29.44252014 15.82327271 C29.46765766 18.11275305 29.47196538 20.40180034 29.4765625 22.69140625 C29.4908645 24.27800329 29.50662006 25.86458784 29.52377319 27.45115662 C29.56569698 31.63139364 29.59064803 35.81155328 29.61126709 39.99194336 C29.64703709 46.68745133 29.70791957 53.38276847 29.76975632 60.07807732 C29.78891237 62.42302779 29.80059562 64.76792727 29.81118774 67.1129303 C29.82139508 68.54216626 29.8317526 69.97140116 29.84228516 71.40063477 C29.85202866 73.28021629 29.85202866 73.28021629 29.86196899 75.19776917 C29.68094959 77.90477037 29.68094959 77.90477037 31 79 C33.0854182 79.1238634 35.17500141 79.17799067 37.26391602 79.20532227 C37.91755127 79.21522186 38.57118652 79.22512146 39.24462891 79.23532104 C41.41435064 79.26701634 43.5840943 79.29172492 45.75390625 79.31640625 C47.25463952 79.33696887 48.7553669 79.35796515 50.25608826 79.37937927 C54.21311693 79.43467155 58.17019849 79.48404911 62.12731934 79.53222656 C66.1624016 79.5823895 70.19740672 79.63810268 74.23242188 79.69335938 C82.15488277 79.8010284 90.07740804 79.90245379 98 80 C98.125 82.375 98.125 82.375 98 85 C95.38233194 87.61766806 93.52213996 87.24940946 89.95715332 87.28216553 C89.11036011 87.27968811 88.26356689 87.27721069 87.39111328 87.2746582 C86.49991791 87.27976913 85.60872253 87.28488007 84.69052124 87.29014587 C81.73371736 87.30408737 78.77714542 87.3030815 75.8203125 87.30078125 C73.77008985 87.30466607 71.71986801 87.30900029 69.66964722 87.31376648 C65.36714065 87.32123878 61.06471612 87.32093039 56.76220703 87.31567383 C51.2449517 87.30988202 45.72803237 87.32679842 40.2108326 87.3500185 C35.97466056 87.36474267 31.73856965 87.36562926 27.50237656 87.36250877 C25.46818248 87.36302279 23.43398395 87.36827545 21.39981461 87.37832069 C18.55554576 87.39064034 15.7119339 87.38391995 12.86767578 87.37231445 C12.02493103 87.37995819 11.18218628 87.38760193 10.31390381 87.39547729 C7.07087007 87.36619012 4.45318494 87.20650572 1.48088074 85.85209656 C-0.62999308 83.21208509 -0.52510529 81.35496893 -0.56176758 77.99414062 C-0.5847139 76.75434448 -0.60766022 75.51454834 -0.63130188 74.23718262 C-0.63629273 72.87687375 -0.64068619 71.51656259 -0.64453125 70.15625 C-0.66208319 68.74871847 -0.68120889 67.34120576 -0.701828 65.93371582 C-0.74121263 62.97125435 -0.76766832 60.00906409 -0.78393555 57.04638672 C-0.80459115 53.30662028 -0.84706443 49.56755682 -0.89810371 45.82809448 C-1.10427321 30.52619049 -1.15534754 15.27111596 0 0 Z " fill="#FAF9FA" transform="translate(148,301)"/>
<path d="M0 0 C1.485 0.495 1.485 0.495 3 1 C2.99777939 1.73471527 2.99555878 2.46943054 2.99327087 3.22640991 C2.97325357 10.14237086 2.95801849 17.05832748 2.94818783 23.97430992 C2.94296394 27.53008635 2.93587522 31.08583889 2.92456055 34.64160156 C2.91164086 38.72721591 2.90676771 42.81280506 2.90234375 46.8984375 C2.89718246 48.17866791 2.89202118 49.45889832 2.88670349 50.77792358 C2.88662796 51.95899689 2.88655243 53.14007019 2.88647461 54.35693359 C2.884254 55.40062103 2.88203339 56.44430847 2.87974548 57.5196228 C2.83295355 60.00205366 2.83295355 60.00205366 4 62 C3.76409948 63.61760357 3.52379259 65.2347257 3.2578125 66.84765625 C2.77450761 70.88251977 2.92653371 74.94302799 3 79 C3.66 79 4.32 79 5 79 C4.505 80.485 4.505 80.485 4 82 C3.65772583 83.33106622 3.32248257 84.66400079 3 86 C3.99 86.495 3.99 86.495 5 87 C4.01 87 3.02 87 2 87 C2 88.98 2 90.96 2 93 C3.65 93.33 5.3 93.66 7 94 C6.505 95.485 6.505 95.485 6 97 C4.35008418 97.70710678 2.6792238 98.36562656 1 99 C0.13375 99.763125 -0.7325 100.52625 -1.625 101.3125 C-6.1665869 103.58329345 -8.42827199 102.59317847 -13.1171875 101.06640625 C-17.45140569 99.4630979 -21.74163063 97.79490996 -26 96 C-27.66599721 95.33166212 -29.33258396 94.66479017 -31 94 C-31.02487768 87.91683239 -31.04294361 81.83369497 -31.05493164 75.75048828 C-31.05993387 73.68472782 -31.06673776 71.61897085 -31.07543945 69.55322266 C-31.08768625 66.56932712 -31.09326956 63.58547875 -31.09765625 60.6015625 C-31.10281754 59.69072906 -31.10797882 58.77989563 -31.11329651 57.84146118 C-31.11367669 53.41125408 -31.0036501 49.00275791 -30.68139648 44.58349609 C-30.62426987 43.79671478 -30.56714325 43.00993347 -30.50828552 42.1993103 C-29.49722374 37.82452785 -26.05967362 35.09963205 -23 32 C-17.87222744 26.01458943 -13.08192051 19.86657012 -8.63671875 13.359375 C-6.57785467 10.39146592 -4.38664031 7.53796981 -2.1640625 4.69140625 C-0.80941692 2.89048778 -0.80941692 2.89048778 0 0 Z " fill="#F9F8F9" transform="translate(552,304)"/>
<path d="M0 0 C4.63487667 -0.07899724 9.26950721 -0.13809451 13.90487671 -0.17868042 C15.54642509 -0.19600415 17.18791868 -0.22013123 18.82925415 -0.2517395 C29.98735793 -0.4586484 40.90175426 0.20205656 50.59375 6.41992188 C55.39175012 11.07398199 57.24726539 18.7186329 58.59375 25.10742188 C58.31712943 26.78443408 57.98978361 28.4545316 57.59375 30.10742188 C57.74440918 30.85620605 57.89506836 31.60499023 58.05029297 32.37646484 C58.6452386 35.3661602 58.72326174 38.10307833 58.7265625 41.15039062 C58.72785156 42.30732422 58.72914063 43.46425781 58.73046875 44.65625 C58.72660156 45.85701172 58.72273437 47.05777344 58.71875 48.29492188 C58.72261719 49.47634766 58.72648438 50.65777344 58.73046875 51.875 C58.72377325 57.91768611 58.50288897 63.82007646 57.81640625 69.82250977 C57.46184611 73.46102767 57.4862054 77.08034451 57.53125 80.73242188 C57.53801758 81.80943359 57.53801758 81.80943359 57.54492188 82.90820312 C57.55647595 84.64131395 57.57439842 86.37438057 57.59375 88.10742188 C56.27375 88.10742188 54.95375 88.10742188 53.59375 88.10742188 C53.59375 83.48742187 53.59375 78.86742187 53.59375 74.10742188 C52.27375 74.43742187 50.95375 74.76742187 49.59375 75.10742188 C50.08875 73.12742187 50.08875 73.12742187 50.59375 71.10742188 C48.61375 70.11742187 48.61375 70.11742187 46.59375 69.10742188 C46.59375 67.78742188 46.59375 66.46742188 46.59375 65.10742188 C47.58375 65.10742188 48.57375 65.10742188 49.59375 65.10742188 C49.59375 65.76742187 49.59375 66.42742187 49.59375 67.10742188 C50.25375 67.10742188 50.91375 67.10742188 51.59375 67.10742188 C51.92375 68.09742188 52.25375 69.08742188 52.59375 70.10742188 C54.46940835 68.23176352 54.02688246 65.12910957 54.21875 62.60742188 C54.31414062 61.42148437 54.40953125 60.23554688 54.5078125 59.01367188 C54.53617188 58.05460937 54.56453125 57.09554687 54.59375 56.10742188 C54.26375 55.77742188 53.93375 55.44742188 53.59375 55.10742188 C53.52195036 53.5881415 53.50982993 52.06574706 53.53125 50.54492188 C53.54027344 49.71863281 53.54929687 48.89234375 53.55859375 48.04101562 C53.57599609 47.08388672 53.57599609 47.08388672 53.59375 46.10742188 C52.93375 46.10742188 52.27375 46.10742188 51.59375 46.10742188 C51.92375 47.42742187 52.25375 48.74742187 52.59375 50.10742188 C50.94375 50.43742187 49.29375 50.76742187 47.59375 51.10742188 C47.59375 51.76742187 47.59375 52.42742187 47.59375 53.10742188 C46.10875 53.60242188 46.10875 53.60242188 44.59375 54.10742188 C44.26375 53.44742188 43.93375 52.78742188 43.59375 52.10742188 C45.24375 51.11742187 46.89375 50.12742187 48.59375 49.10742188 C47.93375 48.44742188 47.27375 47.78742188 46.59375 47.10742188 C45.7374473 44.47508395 45.20445073 41.81195369 44.59375 39.10742188 C45.25375 38.77742188 45.91375 38.44742188 46.59375 38.10742188 C45.60375 37.11742187 44.61375 36.12742187 43.59375 35.10742188 C43.09875 36.09742188 43.09875 36.09742188 42.59375 37.10742188 C43.25375 37.43742187 43.91375 37.76742187 44.59375 38.10742188 C43.93375 38.10742188 43.27375 38.10742188 42.59375 38.10742188 C42.26375 39.75742187 41.93375 41.40742188 41.59375 43.10742188 C40.10875 42.61242187 40.10875 42.61242187 38.59375 42.10742188 C38.56665556 40.02416056 38.54731127 37.94079746 38.53125 35.85742188 C38.51964844 34.69726562 38.50804687 33.53710938 38.49609375 32.34179688 C38.57592908 29.69765059 38.80731222 27.60916096 39.59375 25.10742188 C38.93375 25.10742188 38.27375 25.10742188 37.59375 25.10742188 C36.60375 22.13742187 36.60375 22.13742187 35.59375 19.10742188 C32.95375 19.10742188 30.31375 19.10742188 27.59375 19.10742188 C27.59375 18.44742187 27.59375 17.78742188 27.59375 17.10742188 C26.93375 17.10742188 26.27375 17.10742188 25.59375 17.10742188 C25.59375 17.76742188 25.59375 18.42742187 25.59375 19.10742188 C19.25981918 19.45290901 14.49113492 18.40084934 8.59375 16.10742188 C8.26375 16.76742188 7.93375 17.42742187 7.59375 18.10742188 C7.59375 16.78742188 7.59375 15.46742188 7.59375 14.10742188 C8.58375 14.10742188 9.57375 14.10742188 10.59375 14.10742188 C10.59375 13.44742187 10.59375 12.78742188 10.59375 12.10742188 C8.28375 11.44742187 5.97375 10.78742188 3.59375 10.10742188 C2.93375 11.09742188 2.27375 12.08742188 1.59375 13.10742188 C0.93375 13.10742188 0.27375 13.10742188 -0.40625 13.10742188 C-0.40625 12.11742187 -0.40625 11.12742187 -0.40625 10.10742188 C0.25375 10.10742188 0.91375 10.10742188 1.59375 10.10742188 C1.09875 9.11742187 1.09875 9.11742187 0.59375 8.10742188 C-0.06625 8.10742188 -0.72625 8.10742188 -1.40625 8.10742188 C-1.40625 9.09742188 -1.40625 10.08742188 -1.40625 11.10742188 C-2.72625 10.77742188 -4.04625 10.44742187 -5.40625 10.10742188 C-4.74625 10.10742188 -4.08625 10.10742188 -3.40625 10.10742188 C-3.90125 9.11742187 -3.90125 9.11742187 -4.40625 8.10742188 C-5.72625 8.76742188 -7.04625 9.42742187 -8.40625 10.10742188 C-8.90125 9.11742187 -8.90125 9.11742187 -9.40625 8.10742188 C-10.1796875 8.11902344 -10.953125 8.130625 -11.75 8.14257812 C-12.7915625 8.15160156 -13.833125 8.160625 -14.90625 8.16992188 C-15.9271875 8.18152344 -16.948125 8.193125 -18 8.20507812 C-21.40625 8.10742188 -21.40625 8.10742188 -24.96166992 7.61230469 C-29.94986062 6.97017659 -34.90255046 6.95404605 -39.92578125 6.93164062 C-41.93685977 6.9084723 -43.94792756 6.88435626 -45.95898438 6.859375 C-49.10383659 6.82409502 -52.2482832 6.79479696 -55.39331055 6.78149414 C-58.44628361 6.76608347 -61.49810939 6.72596171 -64.55078125 6.68164062 C-65.96639091 6.68450325 -65.96639091 6.68450325 -67.41059875 6.68742371 C-68.28548447 6.67093277 -69.16037018 6.65444183 -70.06176758 6.63745117 C-70.83039627 6.63158493 -71.59902496 6.62571869 -72.39094543 6.61967468 C-75.16346687 5.91495148 -75.92913038 4.47240214 -77.40625 2.10742188 C-68.88354024 1.37088472 -60.4079713 0.9242127 -51.85546875 0.79101562 C-50.69382202 0.77000793 -49.53217529 0.74900024 -48.33532715 0.72735596 C-44.58819898 0.66146046 -40.84101956 0.60218574 -37.09375 0.54492188 C-35.17280014 0.51514755 -35.17280014 0.51514755 -33.21304321 0.48477173 C-25.46977608 0.36658848 -17.7263984 0.2599833 -9.98291016 0.1574707 C-6.65514325 0.11090468 -3.32759899 0.05719229 0 0 Z " fill="#F0EFF0" transform="translate(208.40625,278.892578125)"/>
<path d="M0 0 C1.65 0 3.3 0 5 0 C5 3.3 5 6.6 5 10 C6.32 9.34 7.64 8.68 9 8 C13.1804509 8.29336498 15.48886112 8.65924075 19 11 C21.75892318 15.55222325 20.9285125 19.99165984 20 25 C19 28 19 28 15 30 C10.05 30 5.1 30 0 30 C0 20.1 0 10.2 0 0 Z " fill="#DEDDDF" transform="translate(317,412)"/>
<path d="M0 0 C1.65 0 3.3 0 5 0 C5 9.9 5 19.8 5 30 C3.68 30 2.36 30 1 30 C1 29.01 1 28.02 1 27 C0.34 27 -0.32 27 -1 27 C-1 27.66 -1 28.32 -1 29 C-4.55353929 30.1845131 -7.27013478 30.26641894 -11 30 C-13.85725017 28.09516655 -14.32326915 26.25640572 -15 23 C-16.06070778 14.74259135 -16.06070778 14.74259135 -13.90625 11.203125 C-12.4375 9.8125 -12.4375 9.8125 -9 8 C-5.54076376 8.11530787 -3.0909091 8.45454545 0 10 C0 6.7 0 3.4 0 0 Z " fill="#DEDDDE" transform="translate(265,412)"/>
<path d="M0 0 C0.99 0.33 1.98 0.66 3 1 C3 2.32 3 3.64 3 5 C3.5775 4.79375 4.155 4.5875 4.75 4.375 C7.51967567 3.91338739 8.64561267 4.57055055 11 6 C11 6.99 11 7.98 11 9 C12.65 9.66 14.3 10.32 16 11 C16 10.34 16 9.68 16 9 C16.99 9 17.98 9 19 9 C18.67 10.65 18.34 12.3 18 14 C17.01 14.33 16.02 14.66 15 15 C15.66 15.33 16.32 15.66 17 16 C16.52046875 16.79470703 16.52046875 16.79470703 16.03125 17.60546875 C14.74903348 20.58273665 14.65197387 23.07925594 14.5 26.3125 C14.19740682 31.19800443 13.6086606 35.38850628 12 40 C11.34 39.34 10.68 38.68 10 38 C8.33985384 37.63557767 6.67293936 37.30027117 5 37 C4.67 36.67 4.34 36.34 4 36 C1.94603274 36.40929986 1.94603274 36.40929986 0 37 C0.02320313 37.75925781 0.04640625 38.51851563 0.0703125 39.30078125 C0.08835937 40.29464844 0.10640625 41.28851563 0.125 42.3125 C0.14820313 43.29863281 0.17140625 44.28476562 0.1953125 45.30078125 C0 48 0 48 -2 51 C-2.2763585 48.75308523 -2.52018861 46.50215158 -2.75 44.25 C-2.88921875 42.99703125 -3.0284375 41.7440625 -3.171875 40.453125 C-3 37 -3 37 -1.265625 34.546875 C1 33 1 33 5 33 C5 32.34 5 31.68 5 31 C4.05125 31.495 3.1025 31.99 2.125 32.5 C-1 34 -1 34 -3 34 C-2.79375 33.21625 -2.5875 32.4325 -2.375 31.625 C-2.25125 30.75875 -2.1275 29.8925 -2 29 C-2.66 28.34 -3.32 27.68 -4 27 C-2.35 27 -0.7 27 1 27 C1 26.34 1 25.68 1 25 C2.32 25 3.64 25 5 25 C4.67 23.68 4.34 22.36 4 21 C4.66 21 5.32 21 6 21 C6.66 19.35 7.32 17.7 8 16 C7.34 15.67 6.68 15.34 6 15 C6.99 15 7.98 15 9 15 C8.67 12.69 8.34 10.38 8 8 C7.34 8.66 6.68 9.32 6 10 C5.01 10 4.02 10 3 10 C3.185625 10.5775 3.37125 11.155 3.5625 11.75 C4 14 4 14 3.5 15.875 C2.82009401 18.76460047 3.41142762 21.12253502 4 24 C2.05078125 23.5 2.05078125 23.5 0 22 C-0.49589123 19.21098753 -0.74147635 16.80176037 -0.8125 14 C-0.85052734 13.26265625 -0.88855469 12.5253125 -0.92773438 11.765625 C-1.16116071 6.32232143 -1.16116071 6.32232143 0 4 C0 2.68 0 1.36 0 0 Z " fill="#464446" transform="translate(280,327)"/>
<path d="M0 0 C1.32 0 2.64 0 4 0 C4.33 0.66 4.66 1.32 5 2 C5.99 2.33 6.98 2.66 8 3 C8 3.66 8 4.32 8 5 C6.68 5.33 5.36 5.66 4 6 C5.98 6 7.96 6 10 6 C9.67 6.99 9.34 7.98 9 9 C8.01 9 7.02 9 6 9 C6 9.66 6 10.32 6 11 C6.99 11 7.98 11 9 11 C9.33 11 9.66 11 10 11 C11.02019573 10.0206121 12.02149805 9.02104551 13 8 C13 11.33333333 13 14.66666667 13 18 C13.66 18.33 14.32 18.66 15 19 C15.33 18.34 15.66 17.68 16 17 C17.26761842 25.23951972 17.47680278 33.46113071 16.5 41.75 C15.67897688 48.80386059 15.92083787 55.91059141 16 63 C14.68 63 13.36 63 12 63 C12 58.38 12 53.76 12 49 C10.02 49.495 10.02 49.495 8 50 C8.33 48.68 8.66 47.36 9 46 C7.68 45.34 6.36 44.68 5 44 C5 42.68 5 41.36 5 40 C5.99 40 6.98 40 8 40 C8 40.66 8 41.32 8 42 C8.66 42 9.32 42 10 42 C10.33 42.99 10.66 43.98 11 45 C12.87565835 43.12434165 12.43313246 40.0216877 12.625 37.5 C12.72039062 36.3140625 12.81578125 35.128125 12.9140625 33.90625 C12.94242187 32.9471875 12.97078125 31.988125 13 31 C12.67 30.67 12.34 30.34 12 30 C11.92820036 28.48071962 11.91607993 26.95832518 11.9375 25.4375 C11.94652344 24.61121094 11.95554687 23.78492188 11.96484375 22.93359375 C11.97644531 22.29550781 11.98804688 21.65742188 12 21 C11.34 21 10.68 21 10 21 C10.33 22.32 10.66 23.64 11 25 C9.35 25.33 7.7 25.66 6 26 C6 26.66 6 27.32 6 28 C5.01 28.33 4.02 28.66 3 29 C2.67 28.34 2.34 27.68 2 27 C3.65 26.01 5.3 25.02 7 24 C6.34 23.34 5.68 22.68 5 22 C4.1436973 19.36766208 3.61070073 16.70453182 3 14 C3.66 13.67 4.32 13.34 5 13 C4.01 12.01 3.02 11.02 2 10 C1.67 10.66 1.34 11.32 1 12 C1.66 12.33 2.32 12.66 3 13 C2.34 13 1.68 13 1 13 C0.67 14.65 0.34 16.3 0 18 C-0.99 17.67 -1.98 17.34 -3 17 C-3.05386629 14.87527424 -3.09273071 12.75016348 -3.125 10.625 C-3.14820313 9.44164062 -3.17140625 8.25828125 -3.1953125 7.0390625 C-3 4 -3 4 -1 2 C-0.67 1.34 -0.34 0.68 0 0 Z " fill="#9A989A" transform="translate(250,304)"/>
<path d="M0 0 C8 0 8 0 11.4375 0.5 C15.39475231 1.05540383 18.52647766 1.10331396 22.4375 0.25 C26 0 26 0 28.703125 1.40625 C32.06213708 5.1994201 31.5605738 8.36485438 31.3125 13.25 C31.28994141 14.09046875 31.26738281 14.9309375 31.24414062 15.796875 C31.18537714 17.86534964 31.09569885 19.93290488 31 22 C29.35 22 27.7 22 26 22 C25.67 16.72 25.34 11.44 25 6 C22.525 5.505 22.525 5.505 20 5 C17.94077598 7.05922402 18.58572421 11.21708124 18.4375 14.0625 C18.39431641 14.82111328 18.35113281 15.57972656 18.30664062 16.36132812 C18.20026367 18.24065438 18.09960066 20.12030244 18 22 C16.35 22 14.7 22 13 22 C13 16.39 13 10.78 13 5 C10.69 5.33 8.38 5.66 6 6 C5.67 11.28 5.34 16.56 5 22 C3.35 22 1.7 22 0 22 C0 14.74 0 7.48 0 0 Z " fill="#E7E6E7" transform="translate(361,420)"/>
<path d="M0 0 C1.65 0 3.3 0 5 0 C5 0.66 5 1.32 5 2 C6.32 2.66 7.64 3.32 9 4 C8.67 3.01 8.34 2.02 8 1 C8.99 1 9.98 1 11 1 C11 1.66 11 2.32 11 3 C11.66 3 12.32 3 13 3 C12.64999003 10.24158565 11.94397591 16.34405447 9 23 C8.34 23 7.68 23 7 23 C7 23.66 7 24.32 7 25 C5.68 25 4.36 25 3 25 C2 21.125 2 21.125 2 20 C0.35 20 -1.3 20 -3 20 C-2.175 20.45375 -1.35 20.9075 -0.5 21.375 C0.325 21.91125 1.15 22.4475 2 23 C2 23.66 2 24.32 2 25 C1.34 25 0.68 25 0 25 C0 26.32 0 27.64 0 29 C-1.65 29.33 -3.3 29.66 -5 30 C-5 29.01 -5 28.02 -5 27 C-7.31 27 -9.62 27 -12 27 C-11.67 26.34 -11.34 25.68 -11 25 C-10.34 25.33 -9.68 25.66 -9 26 C-8.83318891 23.08347826 -8.83318891 23.08347826 -9 20 C-9.66 19.34 -10.32 18.68 -11 18 C-8.03 17.67 -5.06 17.34 -2 17 C-2 15.02 -2 13.04 -2 11 C-1.34 10.67 -0.68 10.34 0 10 C-0.33 9.05125 -0.66 8.1025 -1 7.125 C-2 4 -2 4 -2 2 C-1.34 2 -0.68 2 0 2 C0 1.34 0 0.68 0 0 Z " fill="#D6D4D6" transform="translate(395,370)"/>
<path d="M0 0 C2.75329021 1.79562405 4.52627461 3.05254922 6 6 C6.07181821 8.71760108 6.09299506 11.40859388 6.0625 14.125 C6.05798828 14.87910156 6.05347656 15.63320313 6.04882812 16.41015625 C6.03703499 18.27347127 6.01909942 20.13674555 6 22 C4.35 22 2.7 22 1 22 C0.67 21.34 0.34 20.68 0 20 C-0.66 20.66 -1.32 21.32 -2 22 C-9.01081917 22.55641422 -9.01081917 22.55641422 -12 20.875 C-13.47901666 18.10184376 -13.38601984 16.08815875 -13 13 C-11.45493534 10.96332385 -10.27853844 10.13926922 -8 9 C-5.3276379 8.86584528 -2.67749512 8.95681459 0 9 C-0.33 7.68 -0.66 6.36 -1 5 C-3.41645782 4.83312552 -3.41645782 4.83312552 -6 5 C-6.66 5.66 -7.32 6.32 -8 7 C-9.32 7 -10.64 7 -12 7 C-11.75 4.625 -11.75 4.625 -11 2 C-7.70744355 -0.65937252 -4.06341761 -0.42772817 0 0 Z " fill="#DDDCDD" transform="translate(408,420)"/>
<path d="M0 0 C7.76785714 -0.66964286 7.76785714 -0.66964286 11.5 2.0625 C14 5 14 5 14 12 C9.05 12 4.1 12 -1 12 C-0.34 13.65 0.32 15.3 1 17 C3.31 17 5.62 17 8 17 C8.33 16.34 8.66 15.68 9 15 C10.65 15 12.3 15 14 15 C12.75023244 18.65316671 12.32901247 19.78065836 9 22 C5.60695355 22.53812924 2.39456011 22.528661 -1 22 C-4.25790997 19.457241 -5.19554121 17.00699518 -5.9375 13.0625 C-6.26723774 9.01362724 -5.31430054 6.38879722 -3 3 C-2.01 2.67 -1.02 2.34 0 2 C0 1.34 0 0.68 0 0 Z " fill="#E7E6E8" transform="translate(279,420)"/>
<path d="M0 0 C0.99 0.33 1.98 0.66 3 1 C3 1.66 3 2.32 3 3 C3.66 3 4.32 3 5 3 C5.33 2.01 5.66 1.02 6 0 C7 3 7 3 5.5625 6.1875 C4.7890625 7.5796875 4.7890625 7.5796875 4 9 C3.34 9 2.68 9 2 9 C1.67 10.32 1.34 11.64 1 13 C1.66 13 2.32 13 3 13 C3 12.34 3 11.68 3 11 C6.24271506 11.5590888 7.93057424 12.4132178 10 15 C10 15.66 10 16.32 10 17 C9.01 17 8.02 17 7 17 C7 17.66 7 18.32 7 19 C5.1875 19.6875 5.1875 19.6875 3 20 C1.25 18.5625 1.25 18.5625 0 17 C0.185625 17.763125 0.37125 18.52625 0.5625 19.3125 C1 22 1 22 0 25 C0.0363542 27.37700527 0.14935578 29.75332134 0.3125 32.125 C0.39113281 33.38570313 0.46976562 34.64640625 0.55078125 35.9453125 C0.69902344 36.95335937 0.84726562 37.96140625 1 39 C1.66 39.33 2.32 39.66 3 40 C2.814375 39.154375 2.62875 38.30875 2.4375 37.4375 C1.96470368 33.7226718 2.33935369 30.67025727 3 27 C3.99 26.67 4.98 26.34 6 26 C6.66 25.34 7.32 24.68 8 24 C9 25 9 25 9.3125 28.125 C8.92757909 32.89801923 7.48182811 34.96702932 5 39 C5 39.99 5 40.98 5 42 C3.68 42 2.36 42 1 42 C1 42.66 1 43.32 1 44 C0.34 44 -0.32 44 -1 44 C-5.80170953 36.7974357 -4.96306611 23.00442239 -3.6171875 14.61328125 C-3 13 -3 13 -1 12 C-0.34444881 9.47266765 -0.34444881 9.47266765 0 7 C0.99 7 1.98 7 3 7 C3 6.01 3 5.02 3 4 C2.34 4 1.68 4 1 4 C0.67 2.68 0.34 1.36 0 0 Z " fill="#F0EFF0" transform="translate(280,310)"/>
<path d="M0 0 C1.65 1.32 3.3 2.64 5 4 C4.34 4 3.68 4 3 4 C1.73275237 7.80174289 2.5249181 9.3511132 4 13 C4.66 13.66 5.32 14.32 6 15 C4.68 16.32 3.36 17.64 2 19 C2.66 19 3.32 19 4 19 C4 18.34 4 17.68 4 17 C5.32 16.34 6.64 15.68 8 15 C8 14.01 8 13.02 8 12 C8.66 12 9.32 12 10 12 C11.10844919 15.32534757 10.84454356 17.62182575 10 21 C10.66 21.33 11.32 21.66 12 22 C11.67 25.96 11.34 29.92 11 34 C10.67 34 10.34 34 10 34 C9.67 31.69 9.34 29.38 9 27 C8.01 27 7.02 27 6 27 C5.67 27.99 5.34 28.98 5 30 C3.68 29.67 2.36 29.34 1 29 C1 27.68 1 26.36 1 25 C-0.32 25.33 -1.64 25.66 -3 26 C-4.7479503 20.75614911 -5.19392201 16.52677733 -5 11 C-4.34 11 -3.68 11 -3 11 C-2.86722656 10.28972656 -2.73445312 9.57945312 -2.59765625 8.84765625 C-2.42105469 7.92855469 -2.24445313 7.00945312 -2.0625 6.0625 C-1.88847656 5.14597656 -1.71445313 4.22945313 -1.53515625 3.28515625 C-1 1 -1 1 0 0 Z " fill="#121112" transform="translate(252,313)"/>
<path d="M0 0 C1.98 0 3.96 0 6 0 C6.19335938 0.73605469 6.38671875 1.47210938 6.5859375 2.23046875 C6.84632813 3.20628906 7.10671875 4.18210937 7.375 5.1875 C7.75785156 6.63189453 7.75785156 6.63189453 8.1484375 8.10546875 C9.06655521 11.39413907 9.06655521 11.39413907 11 16 C12.32 11.05 13.64 6.1 15 1 C16.65 0.67 18.3 0.34 20 0 C19.57677841 6.06617611 17.51332347 11.19821358 15.25390625 16.81640625 C14.41881886 18.93664371 13.65103859 21.08464498 12.953125 23.25390625 C11.83534557 26.4743937 10.73199093 27.97052102 8 30 C5.25 30.25 5.25 30.25 3 30 C3 28.68 3 27.36 3 26 C4.32 25.34 5.64 24.68 7 24 C6.44555895 18.58893612 5.07462646 14.17082271 2.9375 9.1875 C0 2.23026316 0 2.23026316 0 0 Z " fill="#EFEEEF" transform="translate(338,420)"/>
<path d="M0 0 C2.3125 -0.3125 2.3125 -0.3125 5 0 C6.81883009 2.3832946 8 3.95818337 8 7 C10.33524782 4.74259377 12.18705073 2.7194239 14 0 C16.625 -0.1875 16.625 -0.1875 19 0 C18.65066406 0.61488281 18.30132812 1.22976563 17.94140625 1.86328125 C17.48636719 2.67152344 17.03132813 3.47976563 16.5625 4.3125 C16.11003906 5.11300781 15.65757812 5.91351563 15.19140625 6.73828125 C13.88909452 9.06211429 13.88909452 9.06211429 13 12 C14.20292238 14.57237568 14.20292238 14.57237568 15.9375 17.1875 C16.78634766 18.53908203 16.78634766 18.53908203 17.65234375 19.91796875 C18.09707031 20.60503906 18.54179687 21.29210937 19 22 C16.64453125 22.1484375 16.64453125 22.1484375 14 22 C10 17.89189189 10 17.89189189 10 15 C9.34 15 8.68 15 8 15 C7.5359375 16.175625 7.5359375 16.175625 7.0625 17.375 C6 20 6 20 5 22 C3.35 22 1.7 22 0 22 C1.03254155 19.22008044 2.04100251 16.94142498 3.75 14.5 C5.30505846 12.06779077 5.30505846 12.06779077 4.375 9.5 C3.41236596 7.74975629 2.40854657 6.02182702 1.375 4.3125 C0 2 0 2 0 0 Z " fill="#E7E6E7" transform="translate(416,420)"/>
<path d="M0 0 C1.65 0 3.3 0 5 0 C6.32 4.29 7.64 8.58 9 13 C11.40804568 10.59195432 12.00768759 8.57796225 13.125 5.375 C13.47820312 4.37210937 13.83140625 3.36921875 14.1953125 2.3359375 C14.46085937 1.56507813 14.72640625 0.79421875 15 0 C16.32 0 17.64 0 19 0 C18.35983027 5.13756468 16.80299667 9.58790181 14.9375 14.375 C14.65583984 15.11105469 14.37417969 15.84710938 14.08398438 16.60546875 C13.39433382 18.4055736 12.69786068 20.2030621 12 22 C10.35 22 8.7 22 7 22 C5.82219564 19.08770867 4.65974925 16.16952322 3.5 13.25 C3.16613281 12.425 2.83226562 11.6 2.48828125 10.75 C2.17246094 9.95078125 1.85664063 9.1515625 1.53125 8.328125 C1.23798828 7.5949707 0.94472656 6.86181641 0.64257812 6.10644531 C0 4 0 4 0 0 Z " fill="#E8E7E8" transform="translate(295,420)"/>
<path d="M0 0 C-0.66 0.66 -1.32 1.32 -2 2 C-0.35 1.34 1.3 0.68 3 0 C3 0.99 3 1.98 3 3 C3.66 3.33 4.32 3.66 5 4 C4.67 2.68 4.34 1.36 4 0 C5.32 0.33 6.64 0.66 8 1 C8 1.66 8 2.32 8 3 C7.34 3 6.68 3 6 3 C6 3.99 6 4.98 6 6 C8.33075929 5.04134491 8.33075929 5.04134491 10 2 C13.465 3.485 13.465 3.485 17 5 C17 5.66 17 6.32 17 7 C16.01 7 15.02 7 14 7 C14 8.32 14 9.64 14 11 C11.36 11.33 8.72 11.66 6 12 C6.33 11.01 6.66 10.02 7 9 C4.36 9.66 1.72 10.32 -1 11 C-1 10.34 -1 9.68 -1 9 C-0.34 9 0.32 9 1 9 C0.34 7.68 -0.32 6.36 -1 5 C-3.12364481 4.77390663 -3.12364481 4.77390663 -4.625 6.5 C-5.07875 6.995 -5.5325 7.49 -6 8 C-7.98 7.01 -9.96 6.02 -12 5 C-12 3.68 -12 2.36 -12 1 C-7.93631321 0.22596442 -4.13574827 -0.0984702 0 0 Z " fill="#7E7D7F" transform="translate(202,286)"/>
<path d="M0 0 C1.670625 0.8971875 1.670625 0.8971875 3.375 1.8125 C4.00148438 2.14894531 4.62796875 2.48539062 5.2734375 2.83203125 C8.20082031 4.81231962 8.95982864 6.79512607 9.625 10.1875 C9.74875 11.115625 9.8725 12.04375 10 13 C8.35 13 6.7 13 5 13 C4.67 14.32 4.34 15.64 4 17 C1.36 16.34 -1.28 15.68 -4 15 C-4.33 15.99 -4.66 16.98 -5 18 C-5.02703381 16.06257659 -5.04641125 14.12504521 -5.0625 12.1875 C-5.07410156 11.10855469 -5.08570313 10.02960938 -5.09765625 8.91796875 C-5 6 -5 6 -4 3 C-1.9375 2.3125 -1.9375 2.3125 0 2 C0 1.34 0 0.68 0 0 Z " fill="#0E0D0F" transform="translate(284,361)"/>
<path d="M0 0 C0.99 0.33 1.98 0.66 3 1 C3 2.32 3 3.64 3 5 C3.5775 4.79375 4.155 4.5875 4.75 4.375 C7.51967567 3.91338739 8.64561267 4.57055055 11 6 C11 6.99 11 7.98 11 9 C13.475 9.99 13.475 9.99 16 11 C16 10.34 16 9.68 16 9 C16.99 9 17.98 9 19 9 C18.67 10.65 18.34 12.3 18 14 C16.35 14.33 14.7 14.66 13 15 C12.67 16.98 12.34 18.96 12 21 C11.01 20.34 10.02 19.68 9 19 C9.66 17.68 10.32 16.36 11 15 C10.34 15 9.68 15 9 15 C8.67 12.69 8.34 10.38 8 8 C7.34 8.66 6.68 9.32 6 10 C5.01 10 4.02 10 3 10 C3.185625 10.5775 3.37125 11.155 3.5625 11.75 C4 14 4 14 3.5 15.875 C2.82009401 18.76460047 3.41142762 21.12253502 4 24 C2.05078125 23.5 2.05078125 23.5 0 22 C-0.49589123 19.21098753 -0.74147635 16.80176037 -0.8125 14 C-0.86954102 12.89398438 -0.86954102 12.89398438 -0.92773438 11.765625 C-1.16116071 6.32232143 -1.16116071 6.32232143 0 4 C0 2.68 0 1.36 0 0 Z " fill="#878587" transform="translate(280,327)"/>
<path d="M0 0 C2.97 0 5.94 0 9 0 C11.19783945 4.39567889 10.96265569 4.61456853 10 9 C10.185625 9.7425 10.37125 10.485 10.5625 11.25 C11.21827753 15.3720302 10.05228678 19.00826749 9 23 C7.68 22.34 6.36 21.68 5 21 C5.33 20.67 5.66 20.34 6 20 C6.04092937 17.66702567 6.04241723 15.33294775 6 13 C5.34 14.65 4.68 16.3 4 18 C3.67 17.01 3.34 16.02 3 15 C2.01 15 1.02 15 0 15 C0 14.34 0 13.68 0 13 C0.66 13 1.32 13 2 13 C2.33 12.34 2.66 11.68 3 11 C1.68 11 0.36 11 -1 11 C-1.99 10.34 -2.98 9.68 -4 9 C-1 8 -1 8 2 9 C1.67 7.68 1.34 6.36 1 5 C1.99 5 2.98 5 4 5 C3.67 4.34 3.34 3.68 3 3 C2.01 2.67 1.02 2.34 0 2 C0 1.34 0 0.68 0 0 Z " fill="#E9E7E9" transform="translate(256,300)"/>
<path d="M0 0 C0 1.32 0 2.64 0 4 C1.32 3.34 2.64 2.68 4 2 C4.99 2.99 5.98 3.98 7 5 C6.01 5.33 5.02 5.66 4 6 C3.34 5.67 2.68 5.34 2 5 C2 5.66 2 6.32 2 7 C3.32 7.33 4.64 7.66 6 8 C5.01 9.32 4.02 10.64 3 12 C2.34 10.68 1.68 9.36 1 8 C0.01 8 -0.98 8 -2 8 C-2.33 8.66 -2.66 9.32 -3 10 C-2.01 10 -1.02 10 0 10 C0 10.66 0 11.32 0 12 C0.66 12.33 1.32 12.66 2 13 C0.9375 15 0.9375 15 -1 17 C-4.6875 17.25 -4.6875 17.25 -8 17 C-7.98259766 16.11248047 -7.98259766 16.11248047 -7.96484375 15.20703125 C-7.91677614 10.99768215 -7.93993117 7.1077667 -9 3 C-5.92807025 0.26939578 -4.09590633 -0.34132553 0 0 Z " fill="#CFCECF" transform="translate(519,325)"/>
<path d="M0 0 C3.3 0 6.6 0 10 0 C10.33 0.66 10.66 1.32 11 2 C11.99 2 12.98 2 14 2 C14 1.34 14 0.68 14 0 C16.33333333 0 18.66666667 0 21 0 C21.969375 -0.061875 22.93875 -0.12375 23.9375 -0.1875 C27 0 27 0 28.875 1.3125 C30 3 30 3 30 6 C28.35 6 26.7 6 25 6 C24.67 5.34 24.34 4.68 24 4 C23.67 4.66 23.34 5.32 23 6 C22.34 6 21.68 6 21 6 C20.67 6.66 20.34 7.32 20 8 C19.01 8 18.02 8 17 8 C17 8.66 17 9.32 17 10 C14.36 10 11.72 10 9 10 C9 8 9 8 10 7 C8.68 7 7.36 7 6 7 C6.33 5.35 6.66 3.7 7 2 C4.69 1.67 2.38 1.34 0 1 C0 0.67 0 0.34 0 0 Z " fill="#302E30" transform="translate(353,388)"/>
<path d="M0 0 C2.9375 -0.4375 2.9375 -0.4375 6 0 C8.53468405 2.19672617 8.94439772 3.62667041 9.4375 6.9375 C8.90475283 10.66673022 7.54808744 12.29265709 5 15 C0.25 14.25 0.25 14.25 -2 12 C-2.265625 9.94140625 -2.265625 9.94140625 -2.25 7.5625 C-2.25515625 6.78003906 -2.2603125 5.99757813 -2.265625 5.19140625 C-2 3 -2 3 0 0 Z " fill="#141214" transform="translate(324,424)"/>
<path d="M0 0 C1.79236067 0.47656412 3.58386897 0.95633498 5.375 1.4375 C6.37273438 1.70433594 7.37046875 1.97117187 8.3984375 2.24609375 C11 3 11 3 13 4 C13 5.32 13 6.64 13 8 C12.34 8 11.68 8 11 8 C10.67 9.32 10.34 10.64 10 12 C9.34 12 8.68 12 8 12 C7.67 12.99 7.34 13.98 7 15 C5.35 14.67 3.7 14.34 2 14 C2 13.34 2 12.68 2 12 C3.32 11.67 4.64 11.34 6 11 C4.10820797 10.3185177 4.10820797 10.3185177 2 10 C1.34 10.66 0.68 11.32 0 12 C-0.33 11.01 -0.66 10.02 -1 9 C-0.67 8.34 -0.34 7.68 0 7 C-1.65 7 -3.3 7 -5 7 C-4.34 6.01 -3.68 5.02 -3 4 C-2.34 4 -1.68 4 -1 4 C-0.67 2.68 -0.34 1.36 0 0 Z " fill="#3F3E3F" transform="translate(519,318)"/>
<path d="M0 0 C3.5625 0.25 3.5625 0.25 7 1 C8.58873246 4.17746491 8.41026221 7.54012202 8 11 C6.5 13.5 6.5 13.5 5 15 C1.68682445 14.73136414 0.36123646 14.40940132 -1.875 11.875 C-3.32826926 8.16108967 -2.94082291 5.83566262 -2 2 C-1.34 1.34 -0.68 0.68 0 0 Z " fill="#111011" transform="translate(257,424)"/>
<path d="M0 0 C6.27 0 12.54 0 19 0 C18.01 0.495 18.01 0.495 17 1 C17 1.66 17 2.32 17 3 C17.66 3.33 18.32 3.66 19 4 C18.01 4 17.02 4 16 4 C16 4.66 16 5.32 16 6 C17.65 5.67 19.3 5.34 21 5 C21 5.66 21 6.32 21 7 C20.34 7 19.68 7 19 7 C19 7.66 19 8.32 19 9 C19.66 9 20.32 9 21 9 C21 9.66 21 10.32 21 11 C18.04452467 11.84442152 16.2614612 12.0653653 13.25 11.3125 C11 10 11 10 10.25 8.125 C10.12625 7.073125 10.12625 7.073125 10 6 C9.814375 5.2575 9.62875 4.515 9.4375 3.75 C9.293125 3.1725 9.14875 2.595 9 2 C8.34 2.66 7.68 3.32 7 4 C7.3185177 6.10820797 7.3185177 6.10820797 8 8 C6.68 8 5.36 8 4 8 C3.67 6.35 3.34 4.7 3 3 C2.01 2.67 1.02 2.34 0 2 C0 1.34 0 0.68 0 0 Z " fill="#1C1B1C" transform="translate(343,389)"/>
<path d="M0 0 C0.66 0.66 1.32 1.32 2 2 C2.33 1.34 2.66 0.68 3 0 C5.31 0 7.62 0 10 0 C10.66 1.98 11.32 3.96 12 6 C11.030625 6.45375 10.06125 6.9075 9.0625 7.375 C5.92920418 8.65786221 5.92920418 8.65786221 5 11 C7.31 11.33 9.62 11.66 12 12 C12.36871508 16.54748603 12.36871508 16.54748603 10.625 18.6875 C9.820625 19.3371875 9.820625 19.3371875 9 20 C8.34 20.66 7.68 21.32 7 22 C7 21.01 7 20.02 7 19 C6.34 18.67 5.68 18.34 5 18 C5.66 17.34 6.32 16.68 7 16 C6.01 15.67 5.02 15.34 4 15 C4 14.34 4 13.68 4 13 C2.68 12.67 1.36 12.34 0 12 C0.99 12 1.98 12 3 12 C2.67 10.68 2.34 9.36 2 8 C1.01 8 0.02 8 -1 8 C-1 7.34 -1 6.68 -1 6 C4.75 5.875 4.75 5.875 7 7 C7 6.34 7 5.68 7 5 C5.02 5 3.04 5 1 5 C1 4.34 1 3.68 1 3 C-0.32 3.33 -1.64 3.66 -3 4 C-3 3.34 -3 2.68 -3 2 C-2.01 2 -1.02 2 0 2 C0 1.34 0 0.68 0 0 Z " fill="#C2C1C2" transform="translate(429,377)"/>
<path d="M0 0 C2.93774463 -0.05390357 5.87450232 -0.0936255 8.8125 -0.125 C10.06256836 -0.15013672 10.06256836 -0.15013672 11.33789062 -0.17578125 C12.14033203 -0.18222656 12.94277344 -0.18867188 13.76953125 -0.1953125 C14.50792236 -0.20578613 15.24631348 -0.21625977 16.00708008 -0.22705078 C18 0 18 0 21 2 C21 2.99 21 3.98 21 5 C20.34 5 19.68 5 19 5 C19 5.66 19 6.32 19 7 C19.66 7.33 20.32 7.66 21 8 C19.35 8.33 17.7 8.66 16 9 C16 8.34 16 7.68 16 7 C15.01 7 14.02 7 13 7 C13 7.66 13 8.32 13 9 C10.69 9.33 8.38 9.66 6 10 C6 8.35 6 6.7 6 5 C6.66 5 7.32 5 8 5 C8.33 3.68 8.66 2.36 9 1 C6.50447516 1.78130071 6.50447516 1.78130071 4 3 C3.67 3.99 3.34 4.98 3 6 C2.34 6 1.68 6 1 6 C0.67 4.02 0.34 2.04 0 0 Z " fill="#282628" transform="translate(321,388)"/>
<path d="M0 0 C1.98 0 3.96 0 6 0 C6.33 0.66 6.66 1.32 7 2 C6.01 2 5.02 2 4 2 C4 2.99 4 3.98 4 5 C2.35 5 0.7 5 -1 5 C-0.175 5.45375 0.65 5.9075 1.5 6.375 C2.325 6.91125 3.15 7.4475 4 8 C4 8.66 4 9.32 4 10 C3.34 10 2.68 10 2 10 C2 11.32 2 12.64 2 14 C0.35 14.33 -1.3 14.66 -3 15 C-3 14.01 -3 13.02 -3 12 C-5.31 12 -7.62 12 -10 12 C-9.67 11.34 -9.34 10.68 -9 10 C-8.34 10.33 -7.68 10.66 -7 11 C-6.83318891 8.08347826 -6.83318891 8.08347826 -7 5 C-7.66 4.34 -8.32 3.68 -9 3 C-4.545 2.505 -4.545 2.505 0 2 C0 1.34 0 0.68 0 0 Z " fill="#BBBABB" transform="translate(393,385)"/>
<path d="M0 0 C0.99 0 1.98 0 3 0 C3 9.57 3 19.14 3 29 C2.01 29 1.02 29 0 29 C0 28.01 0 27.02 0 26 C-1.65 26.33 -3.3 26.66 -5 27 C-4.2575 26.1028125 -4.2575 26.1028125 -3.5 25.1875 C-1.30194525 20.51663366 -1.75976959 16.0804284 -2 11 C-1.34 11 -0.68 11 0 11 C0 7.37 0 3.74 0 0 Z " fill="#F5F5F6" transform="translate(266,413)"/>
<path d="M0 0 C0.598125 0.350625 1.19625 0.70125 1.8125 1.0625 C1.8125 2.0525 1.8125 3.0425 1.8125 4.0625 C2.4725 4.0625 3.1325 4.0625 3.8125 4.0625 C4.1425 5.0525 4.4725 6.0425 4.8125 7.0625 C5.1425 6.4025 5.4725 5.7425 5.8125 5.0625 C8.7844385 6.18701727 11.14690687 7.28543791 13.8125 9.0625 C13.1525 9.0625 12.4925 9.0625 11.8125 9.0625 C11.8125 9.7225 11.8125 10.3825 11.8125 11.0625 C5.47856918 11.40798714 0.70988492 10.35592747 -5.1875 8.0625 C-5.5175 8.7225 -5.8475 9.3825 -6.1875 10.0625 C-6.1875 8.7425 -6.1875 7.4225 -6.1875 6.0625 C-5.1975 6.0625 -4.2075 6.0625 -3.1875 6.0625 C-3.1875 5.4025 -3.1875 4.7425 -3.1875 4.0625 C-4.1775 3.7325 -5.1675 3.4025 -6.1875 3.0625 C-5.8575 2.0725 -5.5275 1.0825 -5.1875 0.0625 C-2.1875 -0.9375 -2.1875 -0.9375 0 0 Z " fill="#CBCACB" transform="translate(222.1875,286.9375)"/>
<path d="M0 0 C1.5 1.375 1.5 1.375 3 3 C3 3.66 3 4.32 3 5 C3.66 5 4.32 5 5 5 C5.33 4.01 5.66 3.02 6 2 C6.66 3.65 7.32 5.3 8 7 C7.01 7.33 6.02 7.66 5 8 C5.33 9.32 5.66 10.64 6 12 C5.34 12 4.68 12 4 12 C4 12.66 4 13.32 4 14 C1.03 14 -1.94 14 -5 14 C-4.625 11.5625 -4.625 11.5625 -4 9 C-3.34 8.67 -2.68 8.34 -2 8 C-2.66 7.67 -3.32 7.34 -4 7 C-4 5.35 -4 3.7 -4 2 C-2.68 1.34 -1.36 0.68 0 0 Z " fill="#5B595B" transform="translate(430,387)"/>
<path d="M0 0 C0.99 0 1.98 0 3 0 C3.05534912 0.68626465 3.11069824 1.3725293 3.16772461 2.07958984 C3.42005303 5.17842435 3.67869649 8.27669984 3.9375 11.375 C4.02451172 12.45523437 4.11152344 13.53546875 4.20117188 14.6484375 C4.28818359 15.6796875 4.37519531 16.7109375 4.46484375 17.7734375 C4.543396 18.72653809 4.62194824 19.67963867 4.70288086 20.66162109 C4.87128174 23.01831795 4.87128174 23.01831795 6 25 C5.01 25 4.02 25 3 25 C3 26.32 3 27.64 3 29 C2.01 29 1.02 29 0 29 C0 19.43 0 9.86 0 0 Z " fill="#F9F8F9" transform="translate(318,413)"/>
<path d="M0 0 C0.99 0 1.98 0 3 0 C3 0.99 3 1.98 3 3 C3.66 3 4.32 3 5 3 C4.67 8.94 4.34 14.88 4 21 C2.35 21 0.7 21 -1 21 C-1.0270203 18.24993392 -1.04684883 15.50013454 -1.0625 12.75 C-1.07087891 11.97269531 -1.07925781 11.19539063 -1.08789062 10.39453125 C-1.09111328 9.64042969 -1.09433594 8.88632812 -1.09765625 8.109375 C-1.10289307 7.41811523 -1.10812988 6.72685547 -1.11352539 6.01464844 C-0.99437971 3.90026102 -0.57618237 2.03358485 0 0 Z " fill="#F7F6F7" transform="translate(362,421)"/>
<path d="M0 0 C0.99 0 1.98 0 3 0 C3 0.66 3 1.32 3 2 C3.66 2 4.32 2 5 2 C5.33 2.99 5.66 3.98 6 5 C6.66 4.67 7.32 4.34 8 4 C8 4.66 8 5.32 8 6 C8.99 6.33 9.98 6.66 11 7 C11 12.28 11 17.56 11 23 C9.68 23 8.36 23 7 23 C7 18.38 7 13.76 7 9 C5.68 9.33 4.36 9.66 3 10 C3.33 8.68 3.66 7.36 4 6 C2.68 5.34 1.36 4.68 0 4 C0 2.68 0 1.36 0 0 Z " fill="#716F71" transform="translate(255,344)"/>
<path d="M0 0 C0.90105469 0.02707031 1.80210937 0.05414063 2.73046875 0.08203125 C3.76107422 0.13423828 3.76107422 0.13423828 4.8125 0.1875 C4.4825 1.1775 4.1525 2.1675 3.8125 3.1875 C1.5025 3.5175 -0.8075 3.8475 -3.1875 4.1875 C-2.8575 5.5075 -2.5275 6.8275 -2.1875 8.1875 C0.1225 8.1875 2.4325 8.1875 4.8125 8.1875 C4.1525 9.5075 3.4925 10.8275 2.8125 12.1875 C-4.54428392 12.54930905 -4.54428392 12.54930905 -7.1875 11.0625 C-8.66651666 8.28934376 -8.57351984 6.27565875 -8.1875 3.1875 C-5.83934143 -0.09380302 -3.89660245 -0.15181568 0 0 Z " fill="#EBEAEB" transform="translate(403.1875,429.8125)"/>
<path d="M0 0 C0.99 0 1.98 0 3 0 C6.72760292 8.07401739 5.14463251 17.41525618 4 26 C3.01 26 2.02 26 1 26 C1.01160156 24.92878906 1.02320313 23.85757812 1.03515625 22.75390625 C1.04453299 21.35677257 1.05363331 19.95963701 1.0625 18.5625 C1.07087891 17.85544922 1.07925781 17.14839844 1.08789062 16.41992188 C1.09653588 14.61306441 1.05220011 12.80612397 1 11 C0.67 10.67 0.34 10.34 0 10 C-0.07205511 8.31391034 -0.08386068 6.62499341 -0.0625 4.9375 C-0.05347656 4.01839844 -0.04445313 3.09929687 -0.03515625 2.15234375 C-0.02355469 1.44207031 -0.01195312 0.73179687 0 0 Z " fill="#C8C7C8" transform="translate(262,324)"/>
<path d="M0 0 C-0.66 0.66 -1.32 1.32 -2 2 C-0.35 1.34 1.3 0.68 3 0 C3 0.99 3 1.98 3 3 C3.66 3.33 4.32 3.66 5 4 C4.67 2.68 4.34 1.36 4 0 C5.32 0.33 6.64 0.66 8 1 C8 1.66 8 2.32 8 3 C7.34 3 6.68 3 6 3 C6 3.99 6 4.98 6 6 C3.42994199 6.0713905 1.33585976 6.10866051 -1.125 5.3125 C-1.74375 5.209375 -2.3625 5.10625 -3 5 C-4.77190909 6.35444301 -4.77190909 6.35444301 -6 8 C-7.98 7.01 -9.96 6.02 -12 5 C-12 3.68 -12 2.36 -12 1 C-7.93631321 0.22596442 -4.13574827 -0.0984702 0 0 Z " fill="#4D4B4D" transform="translate(202,286)"/>
<path d="M0 0 C0.5775 0.165 1.155 0.33 1.75 0.5 C4.26664369 1.14462031 4.26664369 1.14462031 8 1 C9.34164079 1.2981424 10.67851173 1.62243192 12 2 C11.67 3.65 11.34 5.3 11 7 C10.01 7 9.02 7 8 7 C8 7.66 8 8.32 8 9 C6.68 9.33 5.36 9.66 4 10 C4.02320313 10.75925781 4.04640625 11.51851563 4.0703125 12.30078125 C4.08835937 13.29464844 4.10640625 14.28851563 4.125 15.3125 C4.14820313 16.29863281 4.17140625 17.28476562 4.1953125 18.30078125 C4 21 4 21 2 24 C1.7236415 21.75308523 1.47981139 19.50215158 1.25 17.25 C1.11078125 15.99703125 0.9715625 14.7440625 0.828125 13.453125 C1 10 1 10 2.734375 7.546875 C5 6 5 6 9 6 C9 5.34 9 4.68 9 4 C8.05125 4.495 7.1025 4.99 6.125 5.5 C3 7 3 7 1 7 C1.20625 6.21625 1.4125 5.4325 1.625 4.625 C1.74875 3.75875 1.8725 2.8925 2 2 C1.34 1.34 0.68 0.68 0 0 Z " fill="#8D8B8D" transform="translate(276,354)"/>
<path d="M0 0 C0.33 0 0.66 0 1 0 C1 3.33333333 1 6.66666667 1 10 C1.66 10.33 2.32 10.66 3 11 C3.33 10.34 3.66 9.68 4 9 C4 10.65 4 12.3 4 14 C3.67 13.34 3.34 12.68 3 12 C1.35 12.33 -0.3 12.66 -2 13 C-1.67 14.32 -1.34 15.64 -1 17 C-2.65 17.33 -4.3 17.66 -6 18 C-6 18.66 -6 19.32 -6 20 C-6.99 20.33 -7.98 20.66 -9 21 C-9.33 20.34 -9.66 19.68 -10 19 C-8.35 18.01 -6.7 17.02 -5 16 C-5.33 14.35 -5.66 12.7 -6 11 C-5.34 11 -4.68 11 -4 11 C-4 10.34 -4 9.68 -4 9 C-4.66 8.34 -5.32 7.68 -6 7 C-5.360625 6.7525 -4.72125 6.505 -4.0625 6.25 C-1.81723287 5.19352316 -1.81723287 5.19352316 -1.3125 2.9375 C-1.209375 2.298125 -1.10625 1.65875 -1 1 C-0.67 0.67 -0.34 0.34 0 0 Z " fill="#706F70" transform="translate(262,312)"/>
<path d="M0 0 C-0.33 2.31 -0.66 4.62 -1 7 C-2.32 6.67 -3.64 6.34 -5 6 C-5 6.99 -5 7.98 -5 9 C-5.99 9 -6.98 9 -8 9 C-8.33 9.99 -8.66 10.98 -9 12 C-10.98 12 -12.96 12 -15 12 C-15.33 11.01 -15.66 10.02 -16 9 C-15.01 8.67 -14.02 8.34 -13 8 C-12.34 8.33 -11.68 8.66 -11 9 C-11 7.68 -11 6.36 -11 5 C-10.67 4.01 -10.34 3.02 -10 2 C-9.67 2.99 -9.34 3.98 -9 5 C-8.01 4.67 -7.02 4.34 -6 4 C-5.34 4.33 -4.68 4.66 -4 5 C-4 4.01 -4 3.02 -4 2 C-5.32 1.67 -6.64 1.34 -8 1 C-5.29120665 -0.35439668 -2.99066732 -0.06501451 0 0 Z " fill="#2E2C2E" transform="translate(387,389)"/>
<path d="M0 0 C0.99 0.33 1.98 0.66 3 1 C3 1.66 3 2.32 3 3 C3.66 3 4.32 3 5 3 C5.33 2.01 5.66 1.02 6 0 C7 3 7 3 5.5625 6.1875 C4.7890625 7.5796875 4.7890625 7.5796875 4 9 C3.34 9 2.68 9 2 9 C1.67 10.32 1.34 11.64 1 13 C1.66 13 2.32 13 3 13 C3 12.34 3 11.68 3 11 C6.24271506 11.5590888 7.93057424 12.4132178 10 15 C10 15.66 10 16.32 10 17 C9.01 17 8.02 17 7 17 C7 17.66 7 18.32 7 19 C6.34 19 5.68 19 5 19 C5 18.01 5 17.02 5 16 C4.360625 15.855625 3.72125 15.71125 3.0625 15.5625 C1 15 1 15 0 14 C-0.04092937 11.66702567 -0.04241723 9.33294775 0 7 C0.99 7 1.98 7 3 7 C3 6.01 3 5.02 3 4 C2.34 4 1.68 4 1 4 C0.67 2.68 0.34 1.36 0 0 Z " fill="#C9C8C9" transform="translate(280,310)"/>
<path d="M0 0 C0.66 0 1.32 0 2 0 C2.05534912 0.62567871 2.11069824 1.25135742 2.16772461 1.89599609 C2.42013899 4.72272197 2.67874193 7.54884807 2.9375 10.375 C3.02451172 11.35984375 3.11152344 12.3446875 3.20117188 13.359375 C3.28818359 14.30039062 3.37519531 15.24140625 3.46484375 16.2109375 C3.543396 17.08024902 3.62194824 17.94956055 3.70288086 18.84521484 C3.88877834 21.04492916 3.88877834 21.04492916 5 23 C3.68 23 2.36 23 1 23 C0.67 24.98 0.34 26.96 0 29 C-0.33 29 -0.66 29 -1 29 C-1.14973506 19.28385823 -0.69613269 9.68370295 0 0 Z " fill="#3E3D3F" transform="translate(441,308)"/>
<path d="M0 0 C0.99 0.33 1.98 0.66 3 1 C4.1875 4.0625 4.1875 4.0625 5 7 C7.31 7.33 9.62 7.66 12 8 C9.35261084 9.4606285 8.10551666 10 5 10 C5 10.66 5 11.32 5 12 C2.525 11.01 2.525 11.01 0 10 C-0.33 10.66 -0.66 11.32 -1 12 C-1 10.35 -1 8.7 -1 7 C-3.475 6.01 -3.475 6.01 -6 5 C-5.01 4.67 -4.02 4.34 -3 4 C-3 3.34 -3 2.68 -3 2 C-2.01 1.34 -1.02 0.68 0 0 Z " fill="#EDECEE" transform="translate(291,326)"/>
<path d="M0 0 C2.33333333 0 4.66666667 0 7 0 C7.969375 -0.061875 8.93875 -0.12375 9.9375 -0.1875 C13 0 13 0 14.875 1.3125 C16 3 16 3 16 6 C14.35 6 12.7 6 11 6 C10.67 5.34 10.34 4.68 10 4 C9.67 4.66 9.34 5.32 9 6 C8.34 6 7.68 6 7 6 C6.67 6.66 6.34 7.32 6 8 C5.01 7.67 4.02 7.34 3 7 C3.66 6.67 4.32 6.34 5 6 C5 5.34 5 4.68 5 4 C2.03 3.505 2.03 3.505 -1 3 C-0.67 2.01 -0.34 1.02 0 0 Z " fill="#B2B1B2" transform="translate(367,388)"/>
<path d="M0 0 C0.99 0 1.98 0 3 0 C3.45375 0.474375 3.9075 0.94875 4.375 1.4375 C6.46366683 3.44583349 8.1783448 3.61869524 11 4 C11.33 3.01 11.66 2.02 12 1 C12.99 1 13.98 1 15 1 C15.33 2.65 15.66 4.3 16 6 C15.34 6 14.68 6 14 6 C13.67 6.66 13.34 7.32 13 8 C10.03549511 8.9881683 8.29664678 9.07416169 5.25 8.3125 C3 7 3 7 2.1875 4.875 C2.125625 4.25625 2.06375 3.6375 2 3 C1.34 3 0.68 3 0 3 C0 2.01 0 1.02 0 0 Z " fill="#282728" transform="translate(187,289)"/>
<path d="M0 0 C0.66 0.33 1.32 0.66 2 1 C2.50529208 7.18982796 1.13306758 9.90876518 -2 15 C-2 15.99 -2 16.98 -2 18 C-3.65 18 -5.3 18 -7 18 C-6.01 17.34 -5.02 16.68 -4 16 C-4.185625 15.154375 -4.37125 14.30875 -4.5625 13.4375 C-5.03529632 9.7226718 -4.66064631 6.67025727 -4 3 C-3.01 2.67 -2.02 2.34 -1 2 C-0.67 1.34 -0.34 0.68 0 0 Z " fill="#CDCCCE" transform="translate(287,334)"/>
<path d="M0 0 C1.65 1.32 3.3 2.64 5 4 C4.34 4 3.68 4 3 4 C1.73275237 7.80174289 2.5249181 9.3511132 4 13 C4.66 13.66 5.32 14.32 6 15 C4.35 15.66 2.7 16.32 1 17 C0.67 16.34 0.34 15.68 0 15 C0.33 14.34 0.66 13.68 1 13 C0.01 13.33 -0.98 13.66 -2 14 C-3.27019744 9.6813287 -2.62245881 7.14628363 -1 3 C-0.67 2.01 -0.34 1.02 0 0 Z " fill="#545254" transform="translate(252,313)"/>
<path d="M0 0 C2.97 0 5.94 0 9 0 C11 4 11 4 11 8 C9.02 8.66 7.04 9.32 5 10 C4.731875 8.865625 4.46375 7.73125 4.1875 6.5625 C3.795625 5.386875 3.40375 4.21125 3 3 C2.01 2.67 1.02 2.34 0 2 C0 1.34 0 0.68 0 0 Z " fill="#F1F0F1" transform="translate(256,300)"/>
<path d="M0 0 C2.52259061 1.97420135 2.9929808 2.96745642 3.6875 6.1875 C3.790625 7.115625 3.89375 8.04375 4 9 C2.35 9 0.7 9 -1 9 C-1.33 10.32 -1.66 11.64 -2 13 C-3.65 12.67 -5.3 12.34 -7 12 C-6.67 10.35 -6.34 8.7 -6 7 C-5.01 7 -4.02 7 -3 7 C-2.67 5.35 -2.34 3.7 -2 2 C-1.34 2 -0.68 2 0 2 C0 1.34 0 0.68 0 0 Z " fill="#2E2D2E" transform="translate(290,365)"/>
<path d="M0 0 C1.98 0 3.96 0 6 0 C6.99 3.96 7.98 7.92 9 12 C7.68 12.99 6.36 13.98 5 15 C4.16260219 12.8765984 3.33019717 10.7512272 2.5 8.625 C1.80390625 6.84996094 1.80390625 6.84996094 1.09375 5.0390625 C0 2 0 2 0 0 Z " fill="#DEDDDE" transform="translate(338,420)"/>
<path d="M0 0 C2.5 1.375 2.5 1.375 5 3 C5 3.66 5 4.32 5 5 C5.66 5.33 6.32 5.66 7 6 C5.9375 8 5.9375 8 4 10 C0.3125 10.25 0.3125 10.25 -3 10 C-2.25 3.375 -2.25 3.375 0 0 Z " fill="#ABA9AB" transform="translate(514,332)"/>
<path d="M0 0 C2.97 0.99 5.94 1.98 9 3 C8.01 3.66 7.02 4.32 6 5 C6.99 6.485 6.99 6.485 8 8 C5.22003893 8 2.57507433 7.78702071 -0.1875 7.5 C-1.53908203 7.36078125 -1.53908203 7.36078125 -2.91796875 7.21875 C-3.60503906 7.1465625 -4.29210937 7.074375 -5 7 C-4.34 6.01 -3.68 5.02 -3 4 C-2.34 4 -1.68 4 -1 4 C-0.67 2.68 -0.34 1.36 0 0 Z " fill="#A9A7A9" transform="translate(519,318)"/>
<path d="M0 0 C1.32 0 2.64 0 4 0 C3.55499249 3.5600601 2.81451951 6.91306614 1.6875 10.3125 C1.46449219 10.98925781 1.24148438 11.66601562 1.01171875 12.36328125 C0 14 0 14 -2.10546875 14.73046875 C-2.73066406 14.81941406 -3.35585938 14.90835937 -4 15 C-3.43179252 9.54520815 -2.05362055 5.08940744 0 0 Z " fill="#F1EFF1" transform="translate(310,420)"/>
<path d="M0 0 C1.4540625 0.0309375 1.4540625 0.0309375 2.9375 0.0625 C3.5975 1.3825 4.2575 2.7025 4.9375 4.0625 C4.2775 4.0625 3.6175 4.0625 2.9375 4.0625 C2.9375 5.3825 2.9375 6.7025 2.9375 8.0625 C1.2875 8.3925 -0.3625 8.7225 -2.0625 9.0625 C-2.0625 8.0725 -2.0625 7.0825 -2.0625 6.0625 C-2.7225 6.0625 -3.3825 6.0625 -4.0625 6.0625 C-4.105221 4.39638095 -4.10313832 2.72867115 -4.0625 1.0625 C-3.0625 0.0625 -3.0625 0.0625 0 0 Z " fill="#989798" transform="translate(392.0625,390.9375)"/>
<path d="M0 0 C0.66 0.33 1.32 0.66 2 1 C1.54177532 4.46941546 1.10868317 7.67395049 0 11 C-0.66 11 -1.32 11 -2 11 C-2 11.66 -2 12.32 -2 13 C-3.32 13 -4.64 13 -6 13 C-6.33 11.68 -6.66 10.36 -7 9 C-6.01 9 -5.02 9 -4 9 C-3.896875 8.071875 -3.79375 7.14375 -3.6875 6.1875 C-2.9929808 2.96745642 -2.52259061 1.97420135 0 0 Z " fill="#908E90" transform="translate(404,382)"/>
<path d="M0 0 C0.66 0.66 1.32 1.32 2 2 C2.33 1.34 2.66 0.68 3 0 C5.31 0 7.62 0 10 0 C10.66 1.98 11.32 3.96 12 6 C8.37 5.67 4.74 5.34 1 5 C1 4.34 1 3.68 1 3 C-0.32 3.33 -1.64 3.66 -3 4 C-3 3.34 -3 2.68 -3 2 C-2.01 2 -1.02 2 0 2 C0 1.34 0 0.68 0 0 Z " fill="#BCBBBC" transform="translate(429,377)"/>
<path d="M0 0 C1.41623216 -0.05447047 2.83308191 -0.09300508 4.25 -0.125 C5.03890625 -0.14820313 5.8278125 -0.17140625 6.640625 -0.1953125 C9.20731941 0.0171622 10.7916067 0.71345895 13 2 C6.75726932 4.4793824 1.71700347 5.31985731 -5 5 C-4.67 4.34 -4.34 3.68 -4 3 C-2.35 3 -0.7 3 1 3 C0.67 2.01 0.34 1.02 0 0 Z " fill="#BEBDBE" transform="translate(557,280)"/>
<path d="M0 0 C1.1446875 0.2475 1.1446875 0.2475 2.3125 0.5 C5.233592 1.23619132 5.233592 1.23619132 9 0 C9 3.63 9 7.26 9 11 C8.67 11 8.34 11 8 11 C7.67 8.69 7.34 6.38 7 4 C6.01 4 5.02 4 4 4 C3.67 4.99 3.34 5.98 3 7 C1.68 6.67 0.36 6.34 -1 6 C-1.042721 4.33388095 -1.04063832 2.66617115 -1 1 C-0.67 0.67 -0.34 0.34 0 0 Z " fill="#7A797B" transform="translate(254,336)"/>
<path d="M0 0 C0.125 2.375 0.125 2.375 0 5 C-2 7 -2 7 -4.5 7.25 C-7 7 -7 7 -9 5 C-8.625 2.875 -8.625 2.875 -8 1 C-1.125 0 -1.125 0 0 0 Z " fill="#222123" transform="translate(408,432)"/>
<path d="M0 0 C1.32 0 2.64 0 4 0 C4.33 0.66 4.66 1.32 5 2 C5.99 2.33 6.98 2.66 8 3 C8 3.66 8 4.32 8 5 C5.36 5.33 2.72 5.66 0 6 C0 6.99 0 7.98 0 9 C-0.66 9.66 -1.32 10.32 -2 11 C-2.625 7.625 -2.625 7.625 -3 4 C-2.34 3.34 -1.68 2.68 -1 2 C-0.67 1.34 -0.34 0.68 0 0 Z " fill="#AAA9AA" transform="translate(250,304)"/>
<path d="M0 0 C1.32 0 2.64 0 4 0 C4 0.66 4 1.32 4 2 C4.639375 2.20625 5.27875 2.4125 5.9375 2.625 C8 4 8 4 8.75 7.125 C8.87375 8.548125 8.87375 8.548125 9 10 C7.35 9.67 5.7 9.34 4 9 C3.34 7.02 2.68 5.04 2 3 C1.34 3 0.68 3 0 3 C0 2.01 0 1.02 0 0 Z " fill="#2E2D2E" transform="translate(487,327)"/>
<path d="M0 0 C0.99 0 1.98 0 3 0 C3 0.66 3 1.32 3 2 C3.99 1.67 4.98 1.34 6 1 C7.0326802 3.78823655 7.04509293 4.8677274 6.0625 7.75 C5.711875 8.4925 5.36125 9.235 5 10 C4.01 9.67 3.02 9.34 2 9 C2 8.34 2 7.68 2 7 C2.66 6.67 3.32 6.34 4 6 C1.03 5.505 1.03 5.505 -2 5 C-1.125 1.125 -1.125 1.125 0 0 Z " fill="#C0BFC1" transform="translate(395,380)"/>
<path d="M0 0 C1.65 0 3.3 0 5 0 C4.67 0.99 4.34 1.98 4 3 C4.99 3.33 5.98 3.66 7 4 C7 5.32 7 6.64 7 8 C4.69 8 2.38 8 0 8 C0 7.01 0 6.02 0 5 C-0.66 4.34 -1.32 3.68 -2 3 C-1.34 3 -0.68 3 0 3 C0 2.01 0 1.02 0 0 Z " fill="#E7E6E8" transform="translate(301,339)"/>
<path d="M0 0 C0.99 0.33 1.98 0.66 3 1 C1.68 1.33 0.36 1.66 -1 2 C-0.814375 2.5775 -0.62875 3.155 -0.4375 3.75 C0 6 0 6 -0.5 7.875 C-1.17990599 10.76460047 -0.58857238 13.12253502 0 16 C-1.32 15.34 -2.64 14.68 -4 14 C-4 10.04 -4 6.08 -4 2 C-2.68 1.34 -1.36 0.68 0 0 Z " fill="#6E6C6E" transform="translate(284,335)"/>
<path d="M0 0 C0.66 0 1.32 0 2 0 C3.10844919 3.32534757 2.84454356 5.62182575 2 9 C2.66 9.33 3.32 9.66 4 10 C3.360625 10.12375 2.72125 10.2475 2.0625 10.375 C1.381875 10.58125 0.70125 10.7875 0 11 C-0.33 11.66 -0.66 12.32 -1 13 C-1.99 12.01 -2.98 11.02 -4 10 C-3.34 10 -2.68 10 -2 10 C-2.33 8.35 -2.66 6.7 -3 5 C-2.01 4.34 -1.02 3.68 0 3 C0 2.01 0 1.02 0 0 Z " fill="#151315" transform="translate(260,325)"/>
<path d="M0 0 C2.875 -0.125 2.875 -0.125 6 0 C8 2 8 2 8 5 C4.7 5 1.4 5 -2 5 C-1.34 3.35 -0.68 1.7 0 0 Z " fill="#1E1D1F" transform="translate(280,424)"/>
<path d="M0 0 C1.65 0 3.3 0 5 0 C5 1.32 5 2.64 5 4 C4.01 4.495 4.01 4.495 3 5 C3.33 5.99 3.66 6.98 4 8 C2.35 8.33 0.7 8.66 -1 9 C-1.33 6.69 -1.66 4.38 -2 2 C-1.34 2 -0.68 2 0 2 C0 1.34 0 0.68 0 0 Z " fill="#C4C3C5" transform="translate(395,370)"/>
<path d="M0 0 C1.2065625 0.0309375 1.2065625 0.0309375 2.4375 0.0625 C2.7675 1.7125 3.0975 3.3625 3.4375 5.0625 C-1.0175 5.5575 -1.0175 5.5575 -5.5625 6.0625 C-5.5625 5.4025 -5.5625 4.7425 -5.5625 4.0625 C-6.5525 3.7325 -7.5425 3.4025 -8.5625 3.0625 C-7.758125 2.753125 -6.95375 2.44375 -6.125 2.125 C-1.0625 0.02591463 -1.0625 0.02591463 0 0 Z " fill="#111011" transform="translate(404.5625,423.9375)"/>
<path d="M0 0 C0.99 0 1.98 0 3 0 C3 0.66 3 1.32 3 2 C3.66 2 4.32 2 5 2 C5.33 2.99 5.66 3.98 6 5 C6.66 4.67 7.32 4.34 8 4 C8 4.66 8 5.32 8 6 C8.66 6.33 9.32 6.66 10 7 C9.34 7 8.68 7 8 7 C7.67 8.32 7.34 9.64 7 11 C7 10.34 7 9.68 7 9 C5.68 9.33 4.36 9.66 3 10 C3.33 8.68 3.66 7.36 4 6 C2.68 5.34 1.36 4.68 0 4 C0 2.68 0 1.36 0 0 Z " fill="#343234" transform="translate(255,344)"/>
<path d="M0 0 C2 1 2 1 3 2 C3.66 1.67 4.32 1.34 5 1 C7.03144641 1.93446535 9.03533587 2.93224776 11 4 C10.01 4.495 10.01 4.495 9 5 C9 5.66 9 6.32 9 7 C6.36 7 3.72 7 1 7 C0.67 4.69 0.34 2.38 0 0 Z " fill="#C3C1C3" transform="translate(225,291)"/>
<path d="M0 0 C0 0.99 0 1.98 0 3 C-1.32 3.33 -2.64 3.66 -4 4 C-3.97679687 4.75925781 -3.95359375 5.51851563 -3.9296875 6.30078125 C-3.91164063 7.29464844 -3.89359375 8.28851563 -3.875 9.3125 C-3.85179687 10.29863281 -3.82859375 11.28476562 -3.8046875 12.30078125 C-4 15 -4 15 -6 18 C-6.2763585 15.75308523 -6.52018861 13.50215158 -6.75 11.25 C-6.88921875 9.99703125 -7.0284375 8.7440625 -7.171875 7.453125 C-7 4 -7 4 -5.203125 1.546875 C-3 0 -3 0 0 0 Z " fill="#8F8E90" transform="translate(284,360)"/>
<path d="M0 0 C0.66 0.66 1.32 1.32 2 2 C2.66 1.67 3.32 1.34 4 1 C4 1.66 4 2.32 4 3 C5.65 3.33 7.3 3.66 9 4 C7.35 5.98 5.7 7.96 4 10 C3.01 9.67 2.02 9.34 1 9 C0.67 6.03 0.34 3.06 0 0 Z " fill="#E9E8E9" transform="translate(507,339)"/>
<path d="M0 0 C0.66 0.33 1.32 0.66 2 1 C2 2.32 2 3.64 2 5 C0.68872739 5.6690776 -0.6240545 6.33519806 -1.9375 7 C-3.03384766 7.556875 -3.03384766 7.556875 -4.15234375 8.125 C-6 9 -6 9 -7 9 C-7 7.35 -7 5.7 -7 4 C-2.25 2 -2.25 2 0 2 C0 1.34 0 0.68 0 0 Z " fill="#555455" transform="translate(256,330)"/>
<path d="M0 0 C0.66 0 1.32 0 2 0 C2 0.99 2 1.98 2 3 C2.99 3 3.98 3 5 3 C5 3.66 5 4.32 5 5 C5.66 5.33 6.32 5.66 7 6 C5.35 6.33 3.7 6.66 2 7 C2 6.34 2 5.68 2 5 C1.01 5 0.02 5 -1 5 C-1 5.66 -1 6.32 -1 7 C-2.32 7 -3.64 7 -5 7 C-5 6.34 -5 5.68 -5 5 C-4.34 5 -3.68 5 -3 5 C-3 4.34 -3 3.68 -3 3 C-2.01 3 -1.02 3 0 3 C0 2.01 0 1.02 0 0 Z " fill="#383738" transform="translate(335,390)"/>
<path d="M0 0 C3.3 0 6.6 0 10 0 C10 1.65 10 3.3 10 5 C10.99 5.33 11.98 5.66 13 6 C13 6.99 13 7.98 13 9 C11.68 9.33 10.36 9.66 9 10 C9 8 9 8 10 7 C8.68 7 7.36 7 6 7 C6.33 5.35 6.66 3.7 7 2 C4.69 1.67 2.38 1.34 0 1 C0 0.67 0 0.34 0 0 Z " fill="#6D6C6D" transform="translate(353,388)"/>
<path d="M0 0 C0.33 0 0.66 0 1 0 C1.22151549 1.79008467 1.42682213 3.58218162 1.625 5.375 C1.74101562 6.37273437 1.85703125 7.37046875 1.9765625 8.3984375 C1.98429687 9.25695312 1.99203125 10.11546875 2 11 C1.34 11.66 0.68 12.32 0 13 C-0.33 11.68 -0.66 10.36 -1 9 C-1.66 9 -2.32 9 -3 9 C-4.125 5.25 -4.125 5.25 -3 3 C-2.01 3 -1.02 3 0 3 C0 2.01 0 1.02 0 0 Z " fill="#0E0D0E" transform="translate(261,337)"/>
<path d="M0 0 C1.32 0 2.64 0 4 0 C3.45144652 4.571279 2.58255197 8.67435795 1 13 C-0.15147536 9.05208447 -0.59841673 5.08276326 -1 1 C-0.67 0.67 -0.34 0.34 0 0 Z " fill="#DDDCDD" transform="translate(354,420)"/>
<path d="M0 0 C2.50037734 2.17424117 3.43628586 3.73045798 4 7 C2.68 7.33 1.36 7.66 0 8 C0 7.01 0 6.02 0 5 C-1.98 5.99 -1.98 5.99 -4 7 C-4 5.35 -4 3.7 -4 2 C-2.68 1.34 -1.36 0.68 0 0 Z " fill="#757475" transform="translate(430,387)"/>
<path d="M0 0 C0.99 0 1.98 0 3 0 C4.83691257 3.78187881 5.15837626 5.94568308 4 10 C2.68 9.67 1.36 9.34 0 9 C0 6.03 0 3.06 0 0 Z " fill="#E6E5E6" transform="translate(262,324)"/>
<path d="M0 0 C0.66 0.99 1.32 1.98 2 3 C1.01 3 0.02 3 -1 3 C-1.33 3.99 -1.66 4.98 -2 6 C-3.98 6 -5.96 6 -8 6 C-8.33 5.01 -8.66 4.02 -9 3 C-8.01 2.67 -7.02 2.34 -6 2 C-5.34 2.33 -4.68 2.66 -4 3 C-4 2.34 -4 1.68 -4 1 C-2.68 0.67 -1.36 0.34 0 0 Z " fill="#484648" transform="translate(380,395)"/>
<path d="M0 0 C3.04386724 -0.08226668 5.07175348 0.02391783 8 1 C8 2.65 8 4.3 8 6 C6.02 6.99 6.02 6.99 4 8 C3.67 7.34 3.34 6.68 3 6 C3.66 6 4.32 6 5 6 C5 5.34 5 4.68 5 4 C2.03 3.505 2.03 3.505 -1 3 C-0.67 2.01 -0.34 1.02 0 0 Z " fill="#8F8E90" transform="translate(367,388)"/>
<path d="M0 0 C1.5625 1.25 1.5625 1.25 3 3 C2.625 5.0625 2.625 5.0625 2 7 C2.33 7.66 2.66 8.32 3 9 C0.83125748 8.49396008 -0.99967627 8.00016187 -3 7 C-3 5.35 -3 3.7 -3 2 C-2.01 2 -1.02 2 0 2 C0 1.34 0 0.68 0 0 Z " fill="#413F41" transform="translate(533,312)"/>
<path d="M0 0 C0.99 0.33 1.98 0.66 3 1 C3 7.93 3 14.86 3 22 C2.67 22 2.34 22 2 22 C1.67 16.72 1.34 11.44 1 6 C0.01 6.495 0.01 6.495 -1 7 C-0.67 4.69 -0.34 2.38 0 0 Z " fill="#262526" transform="translate(358,420)"/>
<path d="M0 0 C2.4375 0.375 2.4375 0.375 5 1 C5.33 1.66 5.66 2.32 6 3 C5.0625 5.125 5.0625 5.125 4 7 C2.02 6.01 0.04 5.02 -2 4 C-2 3.34 -2 2.68 -2 2 C-1.34 2 -0.68 2 0 2 C0 1.34 0 0.68 0 0 Z " fill="#080708" transform="translate(342,391)"/>
<path d="M0 0 C0.66 0.33 1.32 0.66 2 1 C2.125 7.625 2.125 7.625 1 11 C-0.32 11 -1.64 11 -3 11 C-2.69078116 9.54096742 -2.37751201 8.08279278 -2.0625 6.625 C-1.88847656 5.81289063 -1.71445312 5.00078125 -1.53515625 4.1640625 C-1 2 -1 2 0 0 Z " fill="#BFBDBF" transform="translate(287,334)"/>
<path d="M0 0 C0.99 0.33 1.98 0.66 3 1 C3.33 3.64 3.66 6.28 4 9 C2.68 9.33 1.36 9.66 0 10 C-1.125 6.25 -1.125 6.25 0 4 C0 2.68 0 1.36 0 0 Z " fill="#B6B5B7" transform="translate(280,327)"/>
<path d="M0 0 C4.33333333 0 8.66666667 0 13 0 C11.68 0.33 10.36 0.66 9 1 C9 1.66 9 2.32 9 3 C9.66 3.33 10.32 3.66 11 4 C6.25 5.125 6.25 5.125 4 4 C4 3.01 4 2.02 4 1 C3.01 1 2.02 1 1 1 C0.67 2.32 0.34 3.64 0 5 C0 3.35 0 1.7 0 0 Z " fill="#CCCBCC" transform="translate(361,420)"/>
<path d="M0 0 C2.475 0.99 2.475 0.99 5 2 C4.01 2.66 3.02 3.32 2 4 C1.34 3.67 0.68 3.34 0 3 C0 3.66 0 4.32 0 5 C1.32 5.33 2.64 5.66 4 6 C3.01 7.32 2.02 8.64 1 10 C-0.625 7.8125 -0.625 7.8125 -2 5 C-1.1875 2.1875 -1.1875 2.1875 0 0 Z " fill="#B0AEB0" transform="translate(521,327)"/>
<path d="M0 0 C3 0 3 0 4.5 1.3125 C4.995 1.869375 5.49 2.42625 6 3 C6.8353125 3.7734375 6.8353125 3.7734375 7.6875 4.5625 C9 6 9 6 9 8 C6.03 7.505 6.03 7.505 3 7 C2.67 5.68 2.34 4.36 2 3 C1.34 3 0.68 3 0 3 C0 2.01 0 1.02 0 0 Z " fill="#222022" transform="translate(187,289)"/>
<path d="M0 0 C3.37462715 0.54723683 5.08235 1.0549 8 3 C8 3.66 8 4.32 8 5 C5.03 5 2.06 5 -1 5 C-0.67 3.35 -0.34 1.7 0 0 Z " fill="#717071" transform="translate(426,396)"/>
<path d="M0 0 C1.5 1.125 1.5 1.125 3 3 C3.1875 6 3.1875 6 3 9 C3 9.99 3 10.98 3 12 C3 12.66 3 13.32 3 14 C2.34 14 1.68 14 1 14 C0.04738513 9.23692563 -0.08333357 4.8333472 0 0 Z " fill="#F3F2F3" transform="translate(278,340)"/>
<path d="M0 0 C1.32 0.99 2.64 1.98 4 3 C3.48041715 7.37934119 2.94324258 11.68803391 2 16 C1.67 16 1.34 16 1 16 C0.31798844 10.62915894 -0.11521265 5.41499441 0 0 Z " fill="#BEBDBF" transform="translate(276,335)"/>
<path d="M0 0 C0.66 0.66 1.32 1.32 2 2 C1.67 2.66 1.34 3.32 1 4 C1.66 4 2.32 4 3 4 C3 4.66 3 5.32 3 6 C2.01 6 1.02 6 0 6 C-0.33 6.66 -0.66 7.32 -1 8 C-1 7.34 -1 6.68 -1 6 C-1.99 6 -2.98 6 -4 6 C-4.33 7.32 -4.66 8.64 -5 10 C-5 8.02 -5 6.04 -5 4 C-3.35 3.67 -1.7 3.34 0 3 C0 2.01 0 1.02 0 0 Z " fill="#474647" transform="translate(559,387)"/>
<path d="M0 0 C1.32 0 2.64 0 4 0 C4 1.65 4 3.3 4 5 C3.01 4.67 2.02 4.34 1 4 C0.67 4.66 0.34 5.32 0 6 C-1.32 5.67 -2.64 5.34 -4 5 C-3.34 5 -2.68 5 -2 5 C-1.7834375 4.0409375 -1.7834375 4.0409375 -1.5625 3.0625 C-1 1 -1 1 0 0 Z " fill="#131213" transform="translate(326,389)"/>
<path d="M0 0 C-1.875 5.75 -1.875 5.75 -3 8 C-3.66 8 -4.32 8 -5 8 C-5 6.68 -5 5.36 -5 4 C-5.66 3.67 -6.32 3.34 -7 3 C-7 2.34 -7 1.68 -7 1 C-4.50935112 0.31292445 -2.62113708 0 0 0 Z " fill="#CFCED0" transform="translate(295,349)"/>
<path d="M0 0 C2.125 0.375 2.125 0.375 4 1 C3.625 3.4375 3.625 3.4375 3 6 C2.01 6.495 2.01 6.495 1 7 C1 6.34 1 5.68 1 5 C-0.32 5 -1.64 5 -3 5 C-2 2 -2 2 0 0 Z " fill="#4E4C4E" transform="translate(437,383)"/>
<path d="M0 0 C0.33 0 0.66 0 1 0 C1 2.64 1 5.28 1 8 C-2 9 -2 9 -4.1875 8.0625 C-4.785625 7.711875 -5.38375 7.36125 -6 7 C-5.360625 6.7525 -4.72125 6.505 -4.0625 6.25 C-1.81723287 5.19352316 -1.81723287 5.19352316 -1.3125 2.9375 C-1.1578125 1.9784375 -1.1578125 1.9784375 -1 1 C-0.67 0.67 -0.34 0.34 0 0 Z " fill="#656465" transform="translate(262,312)"/>
<path d="M0 0 C1.28317892 3.84953676 1.06643637 6.94738135 1 11 C0.01 11.33 -0.98 11.66 -2 12 C-2.05395478 10.37536158 -2.09277195 8.75021459 -2.125 7.125 C-2.14820313 6.22007812 -2.17140625 5.31515625 -2.1953125 4.3828125 C-2 2 -2 2 0 0 Z " fill="#0C0B0C" transform="translate(273,426)"/>
<path d="M0 0 C1.98 0 3.96 0 6 0 C6.33 0.66 6.66 1.32 7 2 C6.01 2 5.02 2 4 2 C4 2.99 4 3.98 4 5 C1.69 4.67 -0.62 4.34 -3 4 C-2.01 3.34 -1.02 2.68 0 2 C0 1.34 0 0.68 0 0 Z " fill="#908E90" transform="translate(393,385)"/>
<path d="M0 0 C0.66 0.33 1.32 0.66 2 1 C1.01 1.33 0.02 1.66 -1 2 C0.11854586 5.72614153 0.11854586 5.72614153 3 8 C3 8.66 3 9.32 3 10 C1.35 10.33 -0.3 10.66 -2 11 C-2 7.7 -2 4.4 -2 1 C-1.34 0.67 -0.68 0.34 0 0 Z " fill="#2D2C2E" transform="translate(557,372)"/>
<path d="M0 0 C0.99 0 1.98 0 3 0 C2.49396008 2.16874252 2.00016187 3.99967627 1 6 C1.66 6 2.32 6 3 6 C2.67 7.65 2.34 9.3 2 11 C1.34 11 0.68 11 0 11 C0 7.37 0 3.74 0 0 Z " fill="#818082" transform="translate(263,368)"/>
<path d="M0 0 C1.98 0.99 3.96 1.98 6 3 C6 3.99 6 4.98 6 6 C4.02 6 2.04 6 0 6 C-0.66 4.68 -1.32 3.36 -2 2 C-1.34 2 -0.68 2 0 2 C0 1.34 0 0.68 0 0 Z " fill="#1C1A1C" transform="translate(284,361)"/>
<path d="M0 0 C2.97 0.495 2.97 0.495 6 1 C5.67 4.3 5.34 7.6 5 11 C4.67 11 4.34 11 4 11 C3.67 8.69 3.34 6.38 3 4 C1.68 4 0.36 4 -1 4 C-0.67 2.68 -0.34 1.36 0 0 Z " fill="#9C9A9C" transform="translate(285,331)"/>
<path d="M0 0 C2.97 0.495 2.97 0.495 6 1 C6 1.66 6 2.32 6 3 C5.01 3 4.02 3 3 3 C3 4.32 3 5.64 3 7 C2.01 7 1.02 7 0 7 C-0.33 6.01 -0.66 5.02 -1 4 C-0.34 4 0.32 4 1 4 C0.67 2.68 0.34 1.36 0 0 Z " fill="#545254" transform="translate(213,290)"/>
<path d="M0 0 C1.32 0.33 2.64 0.66 4 1 C4 1.99 4 2.98 4 4 C4.33 3.67 4.66 3.34 5 3 C5.66 2.34 6.32 1.68 7 1 C7.33 2.65 7.66 4.3 8 6 C5 7 5 7 2.3125 5.8125 C1.549375 5.214375 0.78625 4.61625 0 4 C0 2.68 0 1.36 0 0 Z " fill="#939294" transform="translate(190,287)"/>
<path d="M0 0 C0.99 0.33 1.98 0.66 3 1 C2.67 1.66 2.34 2.32 2 3 C2.66 3.33 3.32 3.66 4 4 C3.67 5.65 3.34 7.3 3 9 C2.01 9.33 1.02 9.66 0 10 C0 6.7 0 3.4 0 0 Z " fill="#666566" transform="translate(277,380)"/>
<path d="M0 0 C0.66 1.32 1.32 2.64 2 4 C1.67 4.33 1.34 4.66 1 5 C0.76712992 6.68183948 0.58735834 8.3712416 0.4375 10.0625 C0.31181641 11.44115234 0.31181641 11.44115234 0.18359375 12.84765625 C0.12300781 13.55792969 0.06242187 14.26820313 0 15 C-0.33 15 -0.66 15 -1 15 C-1.33 10.38 -1.66 5.76 -2 1 C-1.34 0.67 -0.68 0.34 0 0 Z " fill="#6B696B" transform="translate(404,293)"/>
<path d="M0 0 C3.3 0 6.6 0 10 0 C10.33 0.99 10.66 1.98 11 3 C10.01 3.495 10.01 3.495 9 4 C9 3.01 9 2.02 9 1 C6.50447516 1.78130071 6.50447516 1.78130071 4 3 C3.67 3.99 3.34 4.98 3 6 C2.34 6 1.68 6 1 6 C0.67 4.02 0.34 2.04 0 0 Z " fill="#6D6B6D" transform="translate(321,388)"/>
<path d="M0 0 C1.32 0.33 2.64 0.66 4 1 C3.34 2.98 2.68 4.96 2 7 C0.35 7 -1.3 7 -3 7 C-2.34 6.67 -1.68 6.34 -1 6 C-0.34227572 2.97065509 -0.34227572 2.97065509 0 0 Z " fill="#666466" transform="translate(293,342)"/>
<path d="M0 0 C2.475 0.99 2.475 0.99 5 2 C4.67 2.99 4.34 3.98 4 5 C3 5 2 5 1 5 C-0.33568021 5.32380126 -1.66923011 5.65657551 -3 6 C-3 5.34 -3 4.68 -3 4 C-2.34 4 -1.68 4 -1 4 C-0.67 2.68 -0.34 1.36 0 0 Z " fill="#3E3D3E" transform="translate(519,318)"/>
<path d="M0 0 C-1.96382007 1.50559539 -3.78263366 2.89131683 -6 4 C-5.67 4.66 -5.34 5.32 -5 6 C-6.65 5.67 -8.3 5.34 -10 5 C-7.62417533 -0.26075462 -5.61350876 -0.1220328 0 0 Z " fill="#2B2A2B" transform="translate(202,286)"/>
<path d="M0 0 C-0.99 1.32 -1.98 2.64 -3 4 C-5.97 3.505 -5.97 3.505 -9 3 C-5.93488101 -0.06511899 -4.25015687 -1.41671896 0 0 Z " fill="#D3D1D3" transform="translate(521,338)"/>
<path d="M0 0 C1.98 0 3.96 0 6 0 C5.01 0.66 4.02 1.32 3 2 C3.33 2.99 3.66 3.98 4 5 C1.03 5 -1.94 5 -5 5 C-4.67 4.34 -4.34 3.68 -4 3 C-2.35 3 -0.7 3 1 3 C0.67 2.01 0.34 1.02 0 0 Z " fill="#8A898B" transform="translate(557,280)"/>
<path d="M0 0 C1.98 0.66 3.96 1.32 6 2 C5.01 2.33 4.02 2.66 3 3 C3 3.66 3 4.32 3 5 C1.02 5 -0.96 5 -3 5 C-3 4.34 -3 3.68 -3 3 C-2.01 3 -1.02 3 0 3 C0 2.01 0 1.02 0 0 Z " fill="#0C0A0C" transform="translate(373,393)"/>
<path d="M0 0 C2.86724686 0.57344937 3.8614515 0.8614515 6 3 C3.69 3.66 1.38 4.32 -1 5 C-0.67 3.35 -0.34 1.7 0 0 Z " fill="#201E20" transform="translate(389,391)"/>
<path d="M0 0 C0.99 0 1.98 0 3 0 C2.67 2.97 2.34 5.94 2 9 C1.34 9 0.68 9 0 9 C0 6.03 0 3.06 0 0 Z " fill="#BCBBBC" transform="translate(263,351)"/>
<path d="M0 0 C1.65 0 3.3 0 5 0 C4.79375 0.5775 4.5875 1.155 4.375 1.75 C3.91338739 4.51967567 4.57055055 5.64561267 6 8 C4.68 7.67 3.36 7.34 2 7 C2 5.02 2 3.04 2 1 C1.34 0.67 0.68 0.34 0 0 Z " fill="#343234" transform="translate(286,342)"/>
<path d="M0 0 C0.66 0 1.32 0 2 0 C3.46726798 3.81489674 2.43336419 6.29011622 1 10 C0.34 10 -0.32 10 -1 10 C-1 8.68 -1 7.36 -1 6 C-0.34 6 0.32 6 1 6 C0.67 4.02 0.34 2.04 0 0 Z " fill="#353335" transform="translate(260,325)"/>
<path d="M0 0 C0.66 1.32 1.32 2.64 2 4 C2.66 4 3.32 4 4 4 C3.67 5.32 3.34 6.64 3 8 C2.01 8 1.02 8 0 8 C0 5.36 0 2.72 0 0 Z " fill="#636263" transform="translate(247,324)"/>
<path d="M0 0 C0.66 0.33 1.32 0.66 2 1 C1.67 1.66 1.34 2.32 1 3 C2.32 3.33 3.64 3.66 5 4 C4.34 4 3.68 4 3 4 C3 4.66 3 5.32 3 6 C2.34 6 1.68 6 1 6 C0.67 6.99 0.34 7.98 0 9 C-0.66 6.36 -1.32 3.72 -2 1 C-1.34 0.67 -0.68 0.34 0 0 Z " fill="#B7B5B7" transform="translate(255,317)"/>
<path d="M0 0 C0.99 0.33 1.98 0.66 3 1 C2.67 2.32 2.34 3.64 2 5 C0.02 5.33 -1.96 5.66 -4 6 C-3.0022242 3.00667261 -2.2477975 2.05233685 0 0 Z " fill="#363436" transform="translate(527,309)"/>
<path d="M0 0 C2.99324263 1.0975223 3.84610901 1.67682892 5.25 4.625 C5.4975 5.40875 5.745 6.1925 6 7 C4.68 7 3.36 7 2 7 C1.7834375 5.824375 1.7834375 5.824375 1.5625 4.625 C1.12201075 2.03578982 1.12201075 2.03578982 0 0 Z " fill="#686768" transform="translate(345,390)"/>
<path d="M0 0 C0.99 0.33 1.98 0.66 3 1 C3 1.66 3 2.32 3 3 C2.34 3 1.68 3 1 3 C0.67 4.98 0.34 6.96 0 9 C-0.99 8.34 -1.98 7.68 -3 7 C-2.01 4.69 -1.02 2.38 0 0 Z " fill="#DEDDDF" transform="translate(292,339)"/>
<path d="M0 0 C0.99 0.33 1.98 0.66 3 1 C3 3.64 3 6.28 3 9 C2.01 8.67 1.02 8.34 0 8 C0 5.36 0 2.72 0 0 Z " fill="#5A595A" transform="translate(260,301)"/>
<path d="M0 0 C0.66 0.33 1.32 0.66 2 1 C1.67 2.98 1.34 4.96 1 7 C-0.65 7.33 -2.3 7.66 -4 8 C-3.34 6.35 -2.68 4.7 -2 3 C-1.34 3 -0.68 3 0 3 C0 2.01 0 1.02 0 0 Z " fill="#BAB9BA" transform="translate(212,290)"/>
<path d="M0 0 C0.99 0 1.98 0 3 0 C3 0.66 3 1.32 3 2 C3.66 2 4.32 2 5 2 C5.33 3.32 5.66 4.64 6 6 C4.02 5.34 2.04 4.68 0 4 C0 2.68 0 1.36 0 0 Z " fill="#6A696A" transform="translate(255,344)"/>
<path d="M0 0 C2.475 0.99 2.475 0.99 5 2 C5.33 1.34 5.66 0.68 6 0 C6 1.65 6 3.3 6 5 C5.67 4.34 5.34 3.68 5 3 C2.69 3.66 0.38 4.32 -2 5 C-1.34 3.35 -0.68 1.7 0 0 Z " fill="#A5A3A5" transform="translate(260,321)"/>
<path d="M0 0 C0.66 0 1.32 0 2 0 C2 0.99 2 1.98 2 3 C2.99 3.33 3.98 3.66 5 4 C4.67 4.66 4.34 5.32 4 6 C4.66 6.33 5.32 6.66 6 7 C4.1875 6.8125 4.1875 6.8125 2 6 C0.25 3.4375 0.25 3.4375 -1 1 C-0.67 0.67 -0.34 0.34 0 0 Z " fill="#131213" transform="translate(428,392)"/>
<path d="M0 0 C0.33 0 0.66 0 1 0 C1 1.65 1 3.3 1 5 C0.01 5.33 -0.98 5.66 -2 6 C-2.33 6.66 -2.66 7.32 -3 8 C-3.33 6.68 -3.66 5.36 -4 4 C-3.01 3.67 -2.02 3.34 -1 3 C-0.67 2.01 -0.34 1.02 0 0 Z " fill="#343334" transform="translate(293,354)"/>
<path d="M0 0 C0.99 0.33 1.98 0.66 3 1 C3 1.99 3 2.98 3 4 C1.35 4.66 -0.3 5.32 -2 6 C-2.33 5.01 -2.66 4.02 -3 3 C-2.01 2.01 -1.02 1.02 0 0 Z " fill="#D0CFD1" transform="translate(297,343)"/>
<path d="M0 0 C1.98 0 3.96 0 6 0 C6.33 0.99 6.66 1.98 7 3 C6.21625 2.95875 5.4325 2.9175 4.625 2.875 C1.83883881 2.71271266 1.83883881 2.71271266 0 5 C-0.33 4.01 -0.66 3.02 -1 2 C-0.67 1.34 -0.34 0.68 0 0 Z " fill="#2C2A2C" transform="translate(519,325)"/>
<path d="M0 0 C2.64 0 5.28 0 8 0 C7.67 1.32 7.34 2.64 7 4 C6.01 3.34 5.02 2.68 4 2 C2.68 2 1.36 2 0 2 C0 1.34 0 0.68 0 0 Z " fill="#AAA9AB" transform="translate(256,300)"/>
<path d="M0 0 C1.65 0 3.3 0 5 0 C5.33 0.99 5.66 1.98 6 3 C4.02 3.33 2.04 3.66 0 4 C0 2.68 0 1.36 0 0 Z " fill="#D6D5D6" transform="translate(321,438)"/>
<path d="M0 0 C0.66 0 1.32 0 2 0 C1.625 1.9375 1.625 1.9375 1 4 C0.01 4.495 0.01 4.495 -1 5 C-1 5.66 -1 6.32 -1 7 C-2.32 7 -3.64 7 -5 7 C-5 6.34 -5 5.68 -5 5 C-4.34 5 -3.68 5 -3 5 C-3 4.34 -3 3.68 -3 3 C-2.01 3 -1.02 3 0 3 C0 2.01 0 1.02 0 0 Z " fill="#5A595B" transform="translate(335,390)"/>
<path d="M0 0 C1.2077558 3.62326739 0.54311128 4.64146369 -1 8 C-1.66 8 -2.32 8 -3 8 C-3.33 7.01 -3.66 6.02 -4 5 C-3.34 5 -2.68 5 -2 5 C-2 3.68 -2 2.36 -2 1 C-1.34 0.67 -0.68 0.34 0 0 Z " fill="#B9B8B9" transform="translate(405,385)"/>
<path d="M0 0 C1.98 0.495 1.98 0.495 4 1 C4 1.66 4 2.32 4 3 C3.34 3 2.68 3 2 3 C2 3.66 2 4.32 2 5 C1.01 5 0.02 5 -1 5 C-0.67 3.35 -0.34 1.7 0 0 Z " fill="#3D3C3D" transform="translate(284,372)"/>
<path d="M0 0 C0.33 0 0.66 0 1 0 C1.25 2.25 1.25 2.25 1 5 C-1 7.3125 -1 7.3125 -3 9 C-2.25 2.25 -2.25 2.25 0 0 Z " fill="#2F2E30" transform="translate(557,364)"/>
<path d="M0 0 C0.99 0.495 0.99 0.495 2 1 C2 1.99 2 2.98 2 4 C2.99 4 3.98 4 5 4 C5.33 4.99 5.66 5.98 6 7 C4.35 7 2.7 7 1 7 C0.67 4.69 0.34 2.38 0 0 Z " fill="#868486" transform="translate(225,291)"/>
<path d="M0 0 C0.66 0.33 1.32 0.66 2 1 C1.67 1.99 1.34 2.98 1 4 C0.34 4 -0.32 4 -1 4 C-1.33 5.32 -1.66 6.64 -2 8 C-2.6875 5.6875 -2.6875 5.6875 -3 3 C-1.5625 1.1875 -1.5625 1.1875 0 0 Z " fill="#3B3A3C" transform="translate(404,382)"/>
<path d="M0 0 C1.32 0.33 2.64 0.66 4 1 C4 2.65 4 4.3 4 6 C3.01 6.33 2.02 6.66 1 7 C1.20625 6.21625 1.4125 5.4325 1.625 4.625 C1.74875 3.75875 1.8725 2.8925 2 2 C1.34 1.34 0.68 0.68 0 0 Z " fill="#C6C4C6" transform="translate(276,354)"/>
<path d="M0 0 C0.66 0.33 1.32 0.66 2 1 C2 1.99 2 2.98 2 4 C2.66 4.33 3.32 4.66 4 5 C4 5.66 4 6.32 4 7 C2.68 6.67 1.36 6.34 0 6 C0 5.34 0 4.68 0 4 C-0.66 3.34 -1.32 2.68 -2 2 C-1.34 2 -0.68 2 0 2 C0 1.34 0 0.68 0 0 Z " fill="#ADABAD" transform="translate(301,340)"/>
</svg>
